<svg width="20" height="20" viewBox="0 0 20 20" fill="none" xmlns="http://www.w3.org/2000/svg">
<path fill-rule="evenodd" clip-rule="evenodd" d="M15.9686 6.63925C15.875 6.31455 15.6408 6.1123 15.2594 6.02697C15.1734 6.0077 13.547 5.99941 9.98875 6.00003C5.78605 6.00079 4.81566 6.00733 4.6963 6.03578C4.39107 6.10852 4.16571 6.28417 4.05619 6.5347C4.00991 6.64053 3.99972 6.70415 4 6.88559C4.0004 7.13635 4.04013 7.30707 4.15911 7.56934C4.28232 7.84094 8.92933 15.3698 9.08073 15.5432C9.23355 15.7181 9.4571 15.8848 9.62747 15.9508C9.81102 16.0219 10.2207 16.0147 10.3973 15.9373C10.5799 15.8574 10.7344 15.7401 10.9 15.5556C10.9998 15.4443 11.7117 14.3108 13.3299 11.6863C14.5887 9.64482 15.6775 7.86555 15.7495 7.73245C15.9703 7.32449 16.0505 6.92373 15.9686 6.63925Z" fill="#0D6CBE"/>
</svg>
