<svg width="80" height="80" viewBox="0 0 80 80" fill="none" xmlns="http://www.w3.org/2000/svg">
<path d="M39.9989 80C62.0903 80 79.9989 62.0914 79.9989 40C79.9989 17.9086 62.0903 0 39.9989 0C17.9075 0 -0.00109863 17.9086 -0.00109863 40C-0.00109863 62.0914 17.9075 80 39.9989 80Z" fill="#22CEFF"/>
<path d="M20.1182 32.9571C21.6203 28.8942 24.3313 25.3892 27.8862 22.9141C31.4412 20.4391 35.6693 19.1128 40.001 19.114C44.3327 19.1152 48.56 20.4438 52.1135 22.9208C55.6671 25.3979 58.3761 28.9044 59.876 32.9681C60.3163 32.2886 60.8925 31.7076 61.5684 31.2617C62.2442 30.8157 63.005 30.5146 63.803 30.3771C61.8347 25.6878 58.5255 21.6842 54.2903 18.8687C50.0551 16.0532 45.0827 14.5513 39.9971 14.5513C34.9114 14.5513 29.939 16.0532 25.7039 18.8687C21.4687 21.6842 18.1594 25.6878 16.1912 30.3771C16.9882 30.5132 17.7485 30.8126 18.4243 31.2566C19.1001 31.7006 19.6769 32.2795 20.1182 32.9571V32.9571Z" fill="white"/>
<path d="M32.6501 59.5431C29.7467 58.4961 27.1108 56.8199 24.9314 54.6344C22.752 52.4489 21.0831 49.8084 20.0442 46.9021C19.6155 47.5765 19.0509 48.1543 18.3867 48.5986C17.7225 49.043 16.973 49.3442 16.186 49.4831C17.5677 52.883 19.6681 55.9439 22.3435 58.4561C25.0189 60.9682 28.2059 62.872 31.686 64.0371C31.6182 63.6919 31.5849 63.3409 31.5862 62.9891V62.7541C31.5847 61.5969 31.958 60.4704 32.6501 59.5431V59.5431Z" fill="white"/>
<path d="M19.2212 44.1079V35.7659C19.1942 34.7835 18.8101 33.8446 18.1409 33.1249C17.4716 32.4052 16.5628 31.954 15.585 31.8559C15.464 31.8439 15.3302 31.8369 15.2012 31.8369H14.9431C13.8751 31.8398 12.8515 32.2653 12.0962 33.0204C11.3409 33.7755 10.9153 34.7989 10.9121 35.8669V44.0049C10.9155 45.0728 11.3414 46.0959 12.0967 46.8508C12.852 47.6057 13.8753 48.031 14.9431 48.0339H15.2012C15.3302 48.0339 15.458 48.0269 15.585 48.0149C16.5623 47.9168 17.4707 47.4661 18.1399 46.7471C18.8091 46.028 19.1935 45.0898 19.2212 44.1079V44.1079Z" fill="white"/>
<path d="M65.0571 31.835H64.7971C64.6641 31.835 64.5321 31.843 64.4031 31.855C63.4178 31.9543 62.5032 32.4117 61.8328 33.1405C61.1624 33.8694 60.7829 34.8189 60.7661 35.809V44.003C60.7701 45.0706 61.196 46.0935 61.9512 46.8482C62.7063 47.603 63.7294 48.0286 64.7971 48.032H65.0552C66.1228 48.0286 67.1456 47.603 67.9006 46.8482C68.6556 46.0934 69.0813 45.0706 69.085 44.003V35.866C69.0815 34.7985 68.6562 33.7756 67.9016 33.0204C67.147 32.2653 66.1246 31.8392 65.0571 31.835V31.835Z" fill="white"/>
<path d="M42.563 59.083H37.4041C36.4308 59.0877 35.499 59.4764 34.8108 60.1646C34.1226 60.8528 33.7337 61.7848 33.729 62.758V62.993C33.7302 63.5559 33.862 64.1107 34.114 64.614C34.4171 65.2284 34.8856 65.746 35.4668 66.1087C36.048 66.4714 36.719 66.6647 37.4041 66.667H42.563C43.5365 66.6654 44.4699 66.2787 45.1592 65.5912C45.8485 64.9038 46.238 63.9715 46.2422 62.998V62.755C46.2388 61.781 45.8498 60.8479 45.1604 60.1598C44.471 59.4717 43.537 59.0846 42.563 59.083V59.083Z" fill="white"/>
<path d="M52.7371 58.3201C52.8838 58.3202 53.0268 58.2752 53.147 58.1911C55.2877 56.6966 57.1464 54.8345 58.637 52.6911C58.6944 52.6139 58.7358 52.526 58.7586 52.4325C58.7813 52.3391 58.785 52.242 58.7696 52.1471C58.7541 52.0522 58.7198 51.9613 58.6685 51.88C58.6172 51.7986 58.5502 51.7283 58.4712 51.6734C58.3923 51.6184 58.3031 51.5799 58.209 51.5601C58.1149 51.5403 58.0178 51.5396 57.9234 51.558C57.829 51.5764 57.7392 51.6137 57.6595 51.6674C57.5797 51.7212 57.5115 51.7905 57.459 51.8711V51.8711C56.0646 53.8753 54.3261 55.6166 52.324 57.0141C52.2015 57.1026 52.1102 57.2275 52.0628 57.3711C52.0154 57.5146 52.0146 57.6695 52.0603 57.8135C52.1061 57.9576 52.1961 58.0835 52.3177 58.1734C52.4392 58.2633 52.5859 58.3125 52.7371 58.3141V58.3201Z" fill="white"/>
<path d="M62.9899 51.174C62.8229 51.0842 62.6274 51.0641 62.4457 51.1181C62.264 51.172 62.1108 51.2957 62.0199 51.462C59.7773 55.5964 56.3964 59.0012 52.278 61.273C52.1141 61.3665 51.9935 61.5207 51.9425 61.7024C51.8915 61.884 51.9141 62.0784 52.0053 62.2436C52.0964 62.4088 52.2489 62.5314 52.4298 62.585C52.6107 62.6386 52.8056 62.6188 52.9721 62.53C57.3296 60.1251 60.9069 56.5224 63.2809 52.148C63.3716 51.9807 63.3923 51.7843 63.3383 51.6019C63.2843 51.4194 63.1602 51.2659 62.9931 51.175L62.9899 51.174Z" fill="white"/>
<path d="M57.1792 33.561H33.8792L34.2161 28.772L30.4731 33.561H22.812C22.0319 35.5778 21.6319 37.7215 21.6321 39.884C21.6726 44.133 23.2101 48.2318 25.9739 51.4594C28.7377 54.687 32.551 56.8369 36.7432 57.531C38.8901 57.912 41.0872 57.912 43.2341 57.531C47.4275 56.8395 51.2423 54.6904 54.0066 51.4622C56.7709 48.234 58.3072 44.1338 58.345 39.884C58.3497 37.7224 57.9546 35.5787 57.1792 33.561V33.561ZM47.8572 46.543C47.2572 56.112 32.7201 55.979 32.0991 46.543C32.0952 46.4637 32.1071 46.3844 32.134 46.3097C32.161 46.2351 32.2024 46.1665 32.2561 46.108C32.3098 46.0495 32.3747 46.0022 32.4468 45.9689C32.5189 45.9356 32.5967 45.9169 32.676 45.914H47.2571C47.4162 45.914 47.5689 45.9772 47.6814 46.0897C47.7939 46.2022 47.8572 46.3548 47.8572 46.514V46.543Z" fill="white"/>
<path d="M33.802 40.968V39.028C33.802 38.5619 33.6169 38.1148 33.2874 37.7852C32.9578 37.4557 32.5108 37.2705 32.0447 37.2705C31.5786 37.2705 31.1314 37.4557 30.8018 37.7852C30.4722 38.1148 30.2871 38.5619 30.2871 39.028V40.968C30.2871 41.4341 30.4722 41.8812 30.8018 42.2108C31.1314 42.5403 31.5786 42.7255 32.0447 42.7255C32.5108 42.7255 32.9578 42.5403 33.2874 42.2108C33.6169 41.8812 33.802 41.4341 33.802 40.968V40.968Z" fill="#22CEFF"/>
<path d="M47.6922 37.2781C47.4615 37.2779 47.2331 37.3233 47.02 37.4114C46.8069 37.4995 46.6134 37.6288 46.4502 37.7917C46.2871 37.9547 46.1575 38.1482 46.0691 38.3612C45.9807 38.5742 45.9352 38.8025 45.9351 39.0331V40.9721C45.9295 41.2064 45.9708 41.4395 46.0567 41.6576C46.1425 41.8757 46.2711 42.0745 46.4348 42.2422C46.5986 42.4099 46.7943 42.5432 47.0103 42.6342C47.2263 42.7251 47.4582 42.772 47.6926 42.772C47.927 42.772 48.159 42.7251 48.375 42.6342C48.591 42.5432 48.7867 42.4099 48.9505 42.2422C49.1142 42.0745 49.2428 41.8757 49.3286 41.6576C49.4144 41.4395 49.4558 41.2064 49.4502 40.9721V39.0331C49.4502 38.8024 49.4047 38.5741 49.3164 38.361C49.2281 38.148 49.0985 37.9544 48.9353 37.7914C48.7721 37.6284 48.5784 37.4992 48.3652 37.4111C48.1521 37.323 47.9238 37.2778 47.6931 37.2781H47.6922Z" fill="#22CEFF"/>
</svg>
