<svg width="23" height="22" viewBox="0 0 23 22" fill="none" xmlns="http://www.w3.org/2000/svg">
<path opacity="0.9" d="M17.2893 14.5511C16.1172 14.5555 14.9613 14.2777 13.9193 13.7411L13.7893 13.6611L13.6293 13.5411C13.5541 13.4613 13.5122 13.3557 13.5122 13.2461C13.5122 13.1364 13.5541 13.0309 13.6293 12.9511V12.8911C13.861 12.5972 14.0249 12.2557 14.1093 11.8911C14.3109 11.1771 14.2506 10.4145 13.9393 9.74106V9.68106C12.7693 7.00106 9.2693 4.92106 5.9593 4.92106C5.01169 4.90811 4.07113 5.08554 3.19336 5.44283C2.3156 5.80013 1.51849 6.33 0.849304 7.00106C1.66374 4.91405 3.09601 3.12546 4.95453 1.87454C6.81305 0.623606 9.00922 -0.0300268 11.2493 0.00105952C11.971 0.00205432 12.691 0.0723773 13.3993 0.21106C15.304 0.577474 17.0793 1.43702 18.548 2.70392C20.0166 3.97082 21.1274 5.60076 21.7693 7.43106C22.0593 8.26106 22.8493 11.1311 20.7693 13.1711C20.318 13.6317 19.7751 13.9925 19.1757 14.2302C18.5763 14.4679 17.9336 14.5772 17.2893 14.5511Z" fill="white"/>
<path opacity="0.7" d="M9.44933 22.0011C8.16508 21.8079 6.92363 21.3952 5.77933 20.7811C3.92625 19.7271 2.40483 18.176 1.38698 16.3029C0.369126 14.4297 -0.104596 12.3093 0.0193338 10.1811C0.471926 8.98259 1.27696 7.94935 2.32839 7.21746C3.37981 6.48557 4.62829 6.08937 5.90933 6.08105C7.79657 6.13689 9.61313 6.81151 11.0793 8.00105C10.4935 8.01267 9.92098 8.17821 9.41933 8.48105H9.35933C7.83303 9.41225 6.65918 10.824 6.02207 12.4945C5.38497 14.1651 5.32069 16 5.83933 17.7111C6.4428 19.554 7.73664 21.0915 9.44933 22.0011V22.0011Z" fill="white"/>
<path opacity="0.4" d="M13.7394 21.8911C12.2689 21.9559 10.8164 21.5482 9.59453 20.7276C8.37266 19.907 7.44567 18.7167 6.94936 17.3311C6.62608 16.3319 6.54817 15.2696 6.72223 14.2339C6.89629 13.1982 7.3172 12.2197 7.94936 11.3811C7.96804 11.8432 8.07319 12.2977 8.25936 12.7211C8.76631 13.8357 9.51615 14.8228 10.454 15.61C11.3918 16.3973 12.4938 16.9649 13.6794 17.2711C14.4714 17.4847 15.289 17.589 16.1094 17.5811C17.0274 17.606 17.9423 17.4637 18.8094 17.1611L19.2294 17.0011H19.3094L19.5394 16.9111L19.7794 16.8011C19.8385 16.7871 19.9002 16.7871 19.9594 16.8011C20.0384 16.8011 20.1159 16.8228 20.1834 16.864C20.2508 16.9051 20.3057 16.9641 20.3418 17.0343C20.378 17.1046 20.3941 17.1835 20.3884 17.2623C20.3826 17.3411 20.3553 17.4168 20.3094 17.4811V17.5411C18.7036 19.7234 16.3754 21.2649 13.7394 21.8911V21.8911Z" fill="white"/>
</svg>
