<svg width="260" height="48" viewBox="0 0 260 48" fill="none" xmlns="http://www.w3.org/2000/svg">
<path d="M248.145 30.2719C247.999 29.3946 248.876 29.1022 249.461 29.6885C250.483 30.7105 251.214 31.5892 252.237 32.1726C255.162 30.2719 257.502 27.3476 258.817 23.9847C257.647 23.6923 256.624 22.9613 255.893 22.084C255.309 21.3529 255.6 20.6219 256.624 20.7681C257.793 20.9158 258.671 21.0605 259.548 21.0605C259.987 19.0135 260.133 15.212 258.233 10.9719C257.355 11.703 256.331 11.9954 255.309 11.9954C254.578 11.9954 254.138 11.2643 254.724 10.6809C255.602 9.8022 256.187 9.07114 256.771 8.34008C255.893 7.02564 254.869 5.85448 253.555 4.53857C253.555 4.53857 253.555 4.53857 253.555 4.68479C253.407 7.17039 251.945 9.21882 250.046 10.2408C251.8 12.1431 252.677 14.0438 253.118 15.6507C254.14 15.6507 255.018 15.3583 256.333 14.9196C256.773 14.7734 257.211 15.0673 257.211 15.5045C256.773 17.1128 255.164 18.4287 253.556 18.5749C253.556 19.0135 253.408 19.5984 253.408 19.8908C253.118 21.3529 252.531 22.6674 251.8 23.9847C252.239 24.2772 252.824 24.4234 253.555 24.7158C254.138 24.862 254.286 25.5931 253.701 26.0317C252.531 26.7628 250.924 26.7628 249.753 26.3227C248.731 27.0537 247.708 27.6386 246.538 27.7848C245.515 27.9325 244.636 28.0772 243.905 28.2249C244.052 29.1022 244.49 29.978 245.076 30.8567C245.367 31.2953 245.076 31.8802 244.491 31.8802C242.736 31.7325 241.128 30.1256 240.836 28.3711C237.18 28.3711 235.718 27.3476 235.133 26.909C234.111 25.8855 234.256 24.5696 234.256 24.4234L227.823 23.3999C227.677 23.84 227.24 28.0787 230.601 31.4416C232.502 33.3438 235.426 34.5135 239.081 34.8059C241.567 34.9521 244.491 34.8059 247.854 34.221C248.585 34.0748 249.316 33.9286 249.901 33.6362C248.582 32.6127 248.29 31.4416 248.145 30.2719Z" fill="#F5C467"/>
<path d="M255.309 12.1431C256.331 12.1431 257.355 11.703 258.233 11.1196C257.793 10.2409 257.355 9.36506 256.771 8.48779C256.187 9.21885 255.6 9.94991 254.724 10.8272C254.138 11.412 254.578 12.1431 255.309 12.1431Z" fill="#6F2F1E"/>
<path d="M256.918 15.6508C257.064 15.2121 256.479 14.7735 256.04 15.0674C254.869 15.6508 253.847 15.7985 252.824 15.7985C253.116 16.8205 253.116 17.844 253.116 18.7227C255.017 18.575 256.624 17.2606 256.918 15.6508Z" fill="#6F2F1E"/>
<path d="M256.624 20.9159C255.6 20.7682 255.309 21.4993 255.893 22.2303C256.624 23.1091 257.647 23.8401 258.817 24.1311C259.109 23.2538 259.402 22.378 259.548 21.3545C259.548 21.3545 259.548 21.3545 259.548 21.2069C258.672 21.2069 257.793 21.0606 256.624 20.9159Z" fill="#6F2F1E"/>
<path d="M253.407 26.0333C253.847 25.7409 253.847 25.0098 253.261 24.7174C252.53 24.5712 251.945 24.2788 251.506 23.9863C250.923 24.8636 250.192 25.5947 249.461 26.1795C250.63 26.9091 252.237 26.7644 253.407 26.0333Z" fill="#6F2F1E"/>
<path d="M249.461 29.6885C248.73 28.9575 247.999 29.2485 248.145 30.2719C248.291 31.5878 248.583 32.7575 249.315 33.781C250.338 33.4886 251.215 32.9023 252.093 32.3189C251.362 31.5893 250.63 30.7106 249.461 29.6885Z" fill="#6F2F1E"/>
<path d="M244.196 31.8816C244.634 31.8816 244.927 31.2968 244.781 30.8581C244.196 29.8346 243.757 28.9574 243.611 28.2263C242.44 28.3725 241.418 28.3725 240.539 28.3725C240.834 30.1271 242.441 31.7339 244.196 31.8816Z" fill="#6F2F1E"/>
<path d="M253.407 4.68485C251.945 3.22273 250.192 1.76061 247.999 0.446168C246.389 -0.432566 244.49 0.00607008 243.465 1.61586C242.587 3.22419 243.026 5.12348 244.634 6.14843C246.975 7.46434 248.582 8.92645 249.899 10.3886C251.945 9.21888 253.262 7.17045 253.407 4.68485Z" fill="#381E0C"/>
<path d="M71.9362 0.0424805C69.7562 0.0424805 67.9885 1.81164 67.9885 3.9902V20.0735H47.8113V3.9902C47.8113 1.81164 46.0436 0.0424805 43.8636 0.0424805C41.6835 0.0424805 39.9158 1.81164 39.9158 3.9902V43.9046C39.9158 46.086 41.6835 47.8537 43.8636 47.8537C46.0436 47.8537 47.8113 46.086 47.8113 43.9046V27.8227H67.9885V43.9046C67.9885 46.086 69.7562 47.8537 71.9362 47.8537C74.1162 47.8537 75.8839 46.086 75.8839 43.9046V3.99166C75.8839 1.81164 74.1162 0.0424805 71.9362 0.0424805Z" fill="white"/>
<path d="M180.569 3.96965C180.569 3.96234 180.572 3.95503 180.572 3.94772C180.572 1.76916 178.804 0 176.624 0C174.444 0 172.676 1.76916 172.676 3.94772C172.676 3.95503 172.679 3.96234 172.679 3.96965H172.676V43.9045C172.676 46.086 174.444 47.8537 176.624 47.8537C178.804 47.8537 180.572 46.086 180.572 43.9045V3.96965H180.569Z" fill="white"/>
<path d="M236.277 43.7437V30.1621C236.277 20.5121 228.235 12.6167 218.293 12.6167C208.35 12.6167 200.309 20.5121 200.309 30.1621V43.7598C200.309 45.9413 202.076 47.7075 204.256 47.7075C206.435 47.7075 208.203 45.9413 208.204 43.7598V30.1621C208.204 24.7523 212.737 20.2197 218.291 20.2197C223.846 20.2197 228.38 24.6061 228.38 30.1621V43.7584C228.38 45.9398 230.148 47.7075 232.328 47.7075C234.508 47.7075 236.275 45.9398 236.275 43.7584C236.278 43.754 236.277 43.7481 236.277 43.7437Z" fill="white"/>
<path d="M166.68 43.7437V30.1621C166.68 20.5121 158.638 12.6167 148.696 12.6167C138.754 12.6167 130.712 20.5121 130.712 30.1621V43.7598C130.713 45.9413 132.481 47.7075 134.66 47.7075C136.838 47.7075 138.606 45.9413 138.606 43.7598V30.1621C138.606 24.7523 143.14 20.2197 148.695 20.2197C154.249 20.2197 158.783 24.6061 158.783 30.1621V43.7584C158.783 45.9398 160.551 47.7075 162.731 47.7075C164.911 47.7075 166.679 45.9398 166.679 43.7584C166.681 43.754 166.68 43.7481 166.68 43.7437Z" fill="white"/>
<path d="M190.515 16.4182C188.334 16.4182 186.566 18.1874 186.566 20.3659V43.9528H186.587C186.689 46.0422 188.401 47.7075 190.517 47.7075C192.63 47.7075 194.34 46.0407 194.444 43.9528H194.465V20.3659C194.462 18.1874 192.694 16.4182 190.515 16.4182Z" fill="white"/>
<circle cx="190.8" cy="6" r="6" fill="white"/>
<path d="M28.2715 44.7336C27.9498 44.9734 27.6296 45.2118 27.2948 45.4252C27.6545 45.241 27.9893 45.0173 28.2715 44.7336Z" fill="#0F5C9E"/>
<path d="M33.7632 28.2937C33.1579 24.7363 31.6519 21.7521 29.2424 19.344C26.0257 16.1274 21.9318 14.5176 16.8144 14.5176C11.9894 14.5176 8.04165 16.1274 4.82499 19.344C1.60833 22.4145 0 26.5069 0 31.3319C0 36.0107 1.60833 39.9584 4.9712 43.3213C8.18786 46.3932 12.2818 48.0001 17.3992 48.0001C20.6159 48.0001 23.5401 47.4152 25.8795 46.2455C26.3664 46.0028 26.8328 45.7192 27.2934 45.4238C27.6282 45.2104 27.9499 44.972 28.2701 44.7323C28.9441 44.0553 29.3608 43.1225 29.3608 42.0902C29.3608 40.6822 28.5742 39.4701 27.425 38.8311L26.9074 38.5884C26.5038 38.4378 26.0725 38.3457 25.6178 38.3457C24.9686 38.3457 24.3662 38.5256 23.834 38.8165C23.6498 38.9467 23.4641 39.0753 23.2725 39.1923C21.499 40.283 19.4944 40.8342 17.253 40.8342C14.7674 40.8342 12.5742 40.1032 10.9659 38.7887C9.21135 37.4728 8.33407 35.5721 7.89544 33.3789H29.7029H29.719C29.7746 33.3789 30.01 33.3789 30.8799 33.3789C32.2806 33.3789 33.8349 31.7603 33.8349 30.171C33.8349 28.5817 33.8656 28.9019 33.7632 28.2937ZM25.8795 27.238H8.18786C9.06513 25.3373 10.0886 23.8751 11.1121 23.1441C12.8666 21.8282 14.7674 21.2433 17.1068 21.2433C19.3 21.2433 21.0545 21.682 22.6628 22.8517C24.2712 23.8751 25.2946 25.3373 25.8795 27.0918V27.238Z" fill="white"/>
<path d="M103.299 1.39624C97.8741 2.21356 78.409 12.7759 78.409 13.988C78.409 15.1913 98.2426 24.755 103.299 25.568C108.356 24.755 128.188 15.1913 128.188 13.988C128.188 12.7759 108.722 2.21356 103.299 1.39624Z" fill="#381E0C"/>
<path d="M104.155 20.933L113.598 20.6727L111.225 13.1223C111.225 13.1223 105.949 10.3838 103.417 10.3838C103.382 10.3838 103.337 10.394 103.299 10.394C103.262 10.394 103.214 10.3838 103.179 10.3838C100.646 10.3838 95.3725 13.1223 95.3725 13.1223L92.998 20.6727L102.44 20.933L103.297 20.9593L104.155 20.933Z" fill="#603518"/>
<path d="M125.33 14.1211H124.975V26.7202H125.33V14.1211Z" fill="#381E0C"/>
<path d="M125.73 25.4436C125.73 25.7608 125.472 26.0196 125.153 26.0196C124.833 26.0196 124.574 25.7608 124.574 25.4436V22.5983C124.574 22.2766 124.833 22.0193 125.153 22.0193C125.472 22.0193 125.73 22.2781 125.73 22.5983V25.4436Z" fill="#381E0C"/>
<path d="M111.631 19.9637C111.631 19.9637 115.991 15.7308 117.822 15.4574C119.655 15.1796 121.28 19.6566 121.024 22.5121C120.768 25.3676 119.509 26.8941 116.366 26.3619C115.142 26.1543 115.284 22.0676 112.011 20.74C111.16 20.395 111.631 19.9637 111.631 19.9637Z" fill="#F5C467"/>
<path d="M119.157 18.6841C119.68 19.0218 121.169 23.5383 118.646 25.1891C116.956 26.2959 116.059 25.635 115.68 24.6583C115.036 23.0061 113.593 22.5572 115.69 20.212C117.237 18.4867 119.157 18.6841 119.157 18.6841Z" fill="#ED8640"/>
<path d="M94.9646 19.9637C94.9646 19.9637 90.606 15.7308 88.7739 15.4574C86.9404 15.1796 85.3175 19.6566 85.5719 22.5121C85.8278 25.3676 87.0852 26.8941 90.2288 26.3619C91.454 26.1543 91.3107 22.0676 94.5844 20.74C95.4353 20.395 94.9646 19.9637 94.9646 19.9637Z" fill="#F5C467"/>
<path d="M87.439 18.6841C86.9156 19.0218 85.4271 23.5383 87.9508 25.1891C89.6395 26.2959 90.5373 25.635 90.9159 24.6583C91.5578 23.0061 93.0024 22.5572 90.9057 20.212C89.3588 18.4867 87.439 18.6841 87.439 18.6841Z" fill="#ED8640"/>
<path d="M122.071 36.8013C121.974 36.0307 116.405 22.0339 115.715 20.8291C115.113 19.7749 106.463 17.6972 103.375 17.1855V17.1562C103.35 17.1592 103.322 17.1621 103.299 17.1709C103.274 17.1621 103.246 17.1592 103.221 17.1562V17.1855C100.133 17.6987 91.4847 19.7749 90.8838 20.8291C90.1936 22.0339 84.6244 36.0293 84.5265 36.8013C84.4285 37.5674 91.2537 47.5215 103.221 47.7028V47.7072C103.249 47.7072 103.272 47.7058 103.299 47.7058C103.325 47.7058 103.35 47.7072 103.375 47.7072V47.7028C115.344 47.5215 122.169 37.5674 122.071 36.8013Z" fill="#F5C467"/>
<path d="M114.019 36.1025C112.965 35.5235 111.862 36.4418 111.501 36.7912C111.571 36.566 111.579 35.9373 111.165 34.2033C110.481 31.3419 105.031 28.6969 103.299 28.6414C101.565 28.6969 96.1167 31.3419 95.4339 34.2033C95.0201 35.9373 95.0259 36.5646 95.0961 36.7912C95.1751 36.8687 95.2219 36.917 95.2219 36.917C95.2219 36.917 95.1444 36.9447 95.0961 36.7912C94.735 36.4432 93.634 35.5235 92.5783 36.1025C91.3414 36.7824 92.6047 39.2227 95.3827 39.5166C95.583 39.5254 95.7292 39.5488 95.7292 39.5488C95.6093 39.5429 95.4967 39.5283 95.3827 39.5166C94.811 39.4961 93.7787 39.6087 94.3475 40.834C95.1151 42.4862 97.2381 41.6133 97.2381 41.6133C97.2381 41.6133 97.5861 43.2903 103.299 43.4395C109.011 43.2903 109.359 41.6133 109.359 41.6133C109.359 41.6133 111.484 42.4862 112.251 40.834C112.818 39.6087 111.788 39.4961 111.216 39.5166C111.1 39.5298 110.988 39.5444 110.869 39.5488C110.869 39.5488 111.016 39.5239 111.216 39.5166C113.993 39.2212 115.254 36.781 114.019 36.1025Z" fill="#F8EEB3"/>
<path d="M110.106 30.3009C110.106 30.3009 109.766 26.9921 111.232 26.7406C112.7 26.4906 113.516 29.8988 112.998 30.798C112.481 31.6972 110.603 31.9384 110.106 30.3009Z" fill="#381E0C"/>
<path d="M96.4661 30.2673C96.4661 30.2673 96.7995 27.0448 95.3695 26.8006C93.941 26.5565 93.1457 29.8769 93.6486 30.7527C94.1516 31.6286 95.9822 31.8625 96.4661 30.2673Z" fill="#381E0C"/>
<path d="M103.299 32.5963C104.25 32.5963 105.021 32.29 105.021 31.9121C105.021 31.5341 104.25 31.2278 103.299 31.2278C102.347 31.2278 101.576 31.5341 101.576 31.9121C101.576 32.29 102.347 32.5963 103.299 32.5963Z" fill="#381E0C"/>
<path d="M99.772 33.5205C100.101 34.4591 101.515 34.8393 102.36 34.4664C103.217 34.0892 103.578 33.076 103.664 32.2031C103.711 31.7337 102.978 31.7396 102.933 32.2031C102.885 32.6914 102.698 33.2368 102.357 33.6053C101.91 34.0878 100.658 33.8392 100.478 33.326C100.323 32.883 99.617 33.0745 99.772 33.5205Z" fill="#381E0C"/>
<path d="M106.118 33.326C105.926 33.8743 104.717 34.038 104.239 33.6053C103.881 33.2821 103.708 32.6622 103.663 32.2031C103.617 31.7396 102.885 31.7337 102.932 32.2031C103.018 33.076 103.378 34.0878 104.234 34.4664C105.079 34.8393 106.493 34.4577 106.822 33.5205C106.979 33.0745 106.273 32.883 106.118 33.326Z" fill="#381E0C"/>
<path d="M103.297 23.5927C103.942 23.5927 104.37 23.0576 104.48 22.4113C104.658 20.8059 104.85 19.1406 105.09 17.5118C104.427 17.3743 103.834 17.2588 103.373 17.1828V17.1536C103.348 17.1565 103.321 17.1594 103.297 17.1682C103.272 17.1594 103.245 17.1565 103.22 17.1536V17.1828C102.759 17.2588 102.167 17.3729 101.505 17.5118C101.744 19.1391 101.936 20.8059 102.114 22.4113C102.114 23.0576 102.654 23.5927 103.297 23.5927Z" fill="#6F2F1E"/>
<path d="M107.488 23.451C108.108 23.6309 108.67 23.2361 108.953 22.6454C109.47 21.3938 110.016 20.1057 110.577 18.8337C109.511 18.5412 108.394 18.2591 107.333 18.0105C107.131 19.3483 106.909 20.6891 106.683 21.9875C106.504 22.6074 106.869 23.2741 107.488 23.451Z" fill="#6F2F1E"/>
<path d="M99.1068 23.451C99.7252 23.2741 100.092 22.6074 99.9124 21.9875C99.6872 20.6891 99.4635 19.3483 99.2632 18.0105C98.2017 18.2605 97.0832 18.5398 96.0173 18.8337C96.5802 20.1057 97.1241 21.3938 97.6417 22.6454C97.9239 23.2346 98.4868 23.6309 99.1068 23.451Z" fill="#6F2F1E"/>
<path d="M113.585 39.7229C113.041 40.068 112.968 40.7537 113.225 41.3532C113.702 42.3211 114.189 43.3154 114.665 44.314C115.591 43.7365 116.434 43.1282 117.193 42.5097C116.521 41.6983 115.858 40.8795 115.215 40.0826C114.87 39.5402 114.127 39.375 113.585 39.7229Z" fill="#6F2F1E"/>
<path d="M117.572 36.037C116.943 35.8601 116.273 36.0194 116 36.6058C115.727 37.1921 115.985 37.9056 116.57 38.179C117.605 38.8135 118.67 39.47 119.723 40.1412C120.761 39.0182 121.471 38.0372 121.816 37.426C120.386 36.9815 118.954 36.5049 117.572 36.037Z" fill="#6F2F1E"/>
<path d="M93.0112 39.7229C92.4673 39.375 91.7245 39.5402 91.3795 40.0826C90.7361 40.8795 90.0738 41.6983 89.3997 42.5127C90.1586 43.1297 91.0037 43.7379 91.9277 44.314C92.4044 43.3139 92.8927 42.3211 93.3694 41.3532C93.6267 40.7537 93.5551 40.068 93.0112 39.7229Z" fill="#6F2F1E"/>
<path d="M90.5943 36.6041C90.3209 36.0192 89.6512 35.8584 89.0225 36.0353C87.6408 36.5032 86.2079 36.9798 84.7794 37.4229C85.123 38.034 85.8351 39.0166 86.8732 40.138C87.9259 39.4669 88.9889 38.8104 90.0255 38.1759C90.6104 37.9039 90.8677 37.1904 90.5943 36.6041Z" fill="#6F2F1E"/>
<g opacity="0.05">
<path opacity="0.05" d="M128.188 13.988C128.188 12.7759 108.723 2.2121 103.299 1.39624V47.7059C103.325 47.7059 103.35 47.7074 103.375 47.7074V47.703C115.344 47.5217 122.169 37.5676 122.071 36.8014C122.011 36.3292 119.883 30.8565 118.092 26.4292C119.987 26.1967 120.824 24.7726 121.025 22.5122C121.132 21.3191 120.907 19.8438 120.479 18.5483C122.17 17.7149 123.717 16.9093 124.975 16.209V22.053C124.744 22.1305 124.574 22.3396 124.574 22.597V25.4422C124.574 25.6966 124.744 25.9087 124.975 25.9832V26.7187H125.33V25.9832C125.561 25.9087 125.729 25.6966 125.729 25.4422V22.597C125.729 22.3396 125.559 22.1305 125.33 22.053V16.0086C127.079 15.0217 128.188 14.2717 128.188 13.988Z" fill="black"/>
</g>
</svg>
