<svg width="24" height="24" viewBox="0 0 24 24" fill="none" xmlns="http://www.w3.org/2000/svg">
<path fill-rule="evenodd" clip-rule="evenodd" d="M7.29105 3.05385C5.08386 3.35921 3.35167 5.10501 3.05458 7.32362C2.98181 7.86719 2.98181 16.1294 3.05458 16.673C3.20169 17.7714 3.68632 18.7534 4.46625 19.5335C5.24403 20.3114 6.23101 20.7987 7.3262 20.9454C7.86966 21.0182 16.1303 21.0182 16.6738 20.9454C18.9079 20.6461 20.6462 18.9075 20.9454 16.673C21.0182 16.1294 21.0182 7.86719 20.9454 7.32362C20.6462 5.08909 18.9079 3.35049 16.6738 3.05121C16.1521 2.98134 7.79821 2.98369 7.29105 3.05385ZM16.2939 4.61776C17.1532 4.69926 17.8579 5.03075 18.4347 5.62475C18.9979 6.20472 19.3001 6.87004 19.3792 7.70364C19.427 8.20788 19.427 15.7887 19.3792 16.293C19.3001 17.1266 18.9979 17.7919 18.4347 18.3719C17.8579 18.9659 17.1532 19.2973 16.2939 19.3789C15.7897 19.4267 8.21028 19.4267 7.70614 19.3789C6.8468 19.2973 6.14207 18.9659 5.5653 18.3719C5.00212 17.7919 4.69987 17.1266 4.62084 16.293C4.57304 15.7887 4.57304 8.20788 4.62084 7.70364C4.70233 6.84414 5.03375 6.13928 5.62764 5.56239C6.18705 5.01901 6.88159 4.69434 7.64247 4.62053C8.08711 4.57744 15.8423 4.57495 16.2939 4.61776ZM16.4033 6.09706C16.1405 6.19812 15.8975 6.43079 15.776 6.69799C15.4365 7.44408 15.9539 8.29111 16.7769 8.33648C17.173 8.35835 17.5777 8.1554 17.7963 7.8254C17.938 7.61135 17.988 7.42974 17.9854 7.13868C17.9784 6.35537 17.1499 5.80994 16.4033 6.09706ZM11.3675 7.41262C10.3497 7.55476 9.46114 7.99829 8.73094 8.72863C7.94507 9.51461 7.50956 10.4434 7.39145 11.5853C7.27802 12.6818 7.62539 13.9006 8.30562 14.7926C8.51169 15.0628 8.93609 15.4873 9.20626 15.6934C10.0981 16.3737 11.3167 16.7212 12.4129 16.6077C13.5546 16.4896 14.4832 16.054 15.2691 15.268C16.0549 14.482 16.4904 13.5532 16.6085 12.4113C16.7017 11.5113 16.4824 10.5047 16.017 9.69611C15.0746 8.05857 13.2298 7.15256 11.3675 7.41262ZM12.7028 9.04732C13.7955 9.30801 14.6898 10.2025 14.9504 11.2953C15.0476 11.703 15.0476 12.2936 14.9504 12.7013C14.7429 13.5717 14.1333 14.3289 13.3238 14.7216C12.8826 14.9358 12.507 15.0205 12 15.0205C11.493 15.0205 11.1174 14.9358 10.6762 14.7216C9.86674 14.3289 9.25714 13.5717 9.04956 12.7013C8.95236 12.2936 8.95236 11.703 9.04956 11.2953C9.30813 10.211 10.1989 9.31399 11.2796 9.04946C11.6749 8.95273 12.3023 8.95179 12.7028 9.04732Z" fill="white"/>
</svg>
