<svg width="32" height="32" viewBox="0 0 32 32" fill="none" xmlns="http://www.w3.org/2000/svg">
<g clip-path="url(#clip0_125_347)">
<path d="M29.5777 17.9394C29.439 17.798 29.2734 17.6858 29.0907 17.6095C28.9079 17.5331 28.7117 17.4942 28.5137 17.4949H12.787C12.7771 17.495 12.7674 17.4921 12.7592 17.4864C12.7511 17.4808 12.7449 17.4727 12.7415 17.4634L10.218 6.6321C10.16 6.41188 10.0521 6.20794 9.90256 6.03617C9.75304 5.86439 9.56598 5.72941 9.35586 5.6416L9.3337 5.63342L4.05685 4.10743C3.69528 3.9601 3.29043 3.95993 2.92878 4.10708C2.56713 4.25422 2.27735 4.537 2.12135 4.89492C2.04586 5.07321 2.00645 5.2647 2.00539 5.45832C2.00434 5.65193 2.04166 5.84382 2.11521 6.02292C2.18876 6.20203 2.29708 6.3648 2.4339 6.50179C2.57073 6.63879 2.73335 6.74731 2.91237 6.82109L2.93686 6.83042L7.52418 8.07755L10.1574 19.3254C10.2407 19.6436 10.4275 19.9251 10.6883 20.1255C10.9492 20.326 11.2692 20.434 11.5982 20.4326H28.4659C28.8576 20.4389 29.2366 20.2934 29.5234 20.0266C29.8103 19.7597 29.9828 19.3923 30.0047 19.0011C30.0093 18.8044 29.9738 18.6088 29.9004 18.4263C29.827 18.2438 29.7172 18.0781 29.5777 17.9394V17.9394Z" fill="#0D6CBE"/>
<path d="M13.9701 22.0239C13.4451 22.0239 12.932 22.1796 12.4955 22.4713C12.059 22.7629 11.7189 23.1774 11.518 23.6624C11.3171 24.1474 11.2645 24.6811 11.3669 25.1959C11.4693 25.7108 11.7221 26.1837 12.0933 26.5549C12.4645 26.9261 12.9374 27.1788 13.4523 27.2813C13.9671 27.3837 14.5008 27.3311 14.9858 27.1302C15.4708 26.9293 15.8853 26.5892 16.1769 26.1527C16.4686 25.7162 16.6242 25.2031 16.6242 24.6781C16.6233 23.9745 16.3434 23.2999 15.8458 22.8024C15.3483 22.3048 14.6737 22.0249 13.9701 22.0239V22.0239Z" fill="#0D6CBE"/>
<path d="M26.0053 22.0239C25.4803 22.0239 24.9671 22.1796 24.5307 22.4713C24.0942 22.7629 23.754 23.1774 23.5531 23.6624C23.3522 24.1474 23.2997 24.6811 23.4021 25.1959C23.5045 25.7108 23.7573 26.1837 24.1285 26.5549C24.4997 26.9261 24.9726 27.1788 25.4874 27.2813C26.0023 27.3837 26.536 27.3311 27.021 27.1302C27.5059 26.9293 27.9205 26.5892 28.2121 26.1527C28.5037 25.7162 28.6594 25.2031 28.6594 24.6781C28.6585 23.9745 28.3786 23.2999 27.881 22.8024C27.3835 22.3048 26.7089 22.0249 26.0053 22.0239V22.0239Z" fill="#0D6CBE"/>
<path d="M15.5718 9.19522H27.893C27.9835 9.19522 28.0703 9.15932 28.1343 9.09532C28.1983 9.03132 28.2342 8.9445 28.2342 8.854C28.2342 8.76349 28.1983 8.67667 28.1343 8.61267C28.0703 8.54868 27.9835 8.51277 27.893 8.51277H27.648C27.5013 8.22662 27.4249 7.90966 27.4249 7.58814C27.4249 7.26662 27.5013 6.94973 27.648 6.66358H27.893C27.9395 6.6663 27.986 6.65949 28.0298 6.64357C28.0735 6.62765 28.1136 6.60296 28.1475 6.57101C28.1814 6.53905 28.2083 6.50048 28.2268 6.45772C28.2452 6.41495 28.2548 6.36892 28.2548 6.32235C28.2548 6.27578 28.2452 6.22967 28.2268 6.18691C28.2083 6.14415 28.1814 6.10558 28.1475 6.07362C28.1136 6.04167 28.0735 6.01698 28.0298 6.00106C27.986 5.98514 27.9395 5.97833 27.893 5.98105H15.5718C15.1666 5.98167 14.7783 6.14289 14.4918 6.42938C14.2053 6.71586 14.0441 7.10423 14.0435 7.50938V7.66689C14.0438 8.07214 14.2049 8.46071 14.4914 8.74726C14.778 9.03381 15.1665 9.19491 15.5718 9.19522V9.19522Z" fill="#0D6CBE"/>
<path d="M15.5718 14.829H27.893C27.9395 14.8317 27.986 14.8249 28.0298 14.809C28.0735 14.7931 28.1136 14.7684 28.1475 14.7364C28.1814 14.7045 28.2083 14.666 28.2268 14.6232C28.2452 14.5805 28.2548 14.5344 28.2548 14.4878C28.2548 14.4412 28.2452 14.3951 28.2268 14.3523C28.2083 14.3096 28.1814 14.2711 28.1475 14.2391C28.1136 14.2072 28.0735 14.1825 28.0298 14.1666C27.986 14.1506 27.9395 14.1438 27.893 14.1466H27.648C27.5013 13.8604 27.4249 13.5434 27.4249 13.2219C27.4249 12.9004 27.5013 12.5835 27.648 12.2974H27.893C27.9395 12.3001 27.986 12.2933 28.0298 12.2774C28.0735 12.2614 28.1136 12.2368 28.1475 12.2048C28.1814 12.1728 28.2083 12.1343 28.2268 12.0915C28.2452 12.0487 28.2548 12.0027 28.2548 11.9561C28.2548 11.9096 28.2452 11.8635 28.2268 11.8207C28.2083 11.7779 28.1814 11.7394 28.1475 11.7075C28.1136 11.6755 28.0735 11.6508 28.0298 11.6349C27.986 11.6189 27.9395 11.6121 27.893 11.6148H15.5718C15.1666 11.6155 14.7783 11.7767 14.4918 12.0632C14.2053 12.3496 14.0441 12.738 14.0435 13.1432V13.3007C14.0438 13.7059 14.2049 14.0945 14.4914 14.381C14.778 14.6676 15.1665 14.8287 15.5718 14.829V14.829Z" fill="#0D6CBE"/>
</g>
<defs>
<clipPath id="clip0_125_347">
<rect width="28" height="23.3333" fill="white" transform="translate(2 4)"/>
</clipPath>
</defs>
</svg>
