<svg width="32" height="32" viewBox="0 0 32 32" fill="none" xmlns="http://www.w3.org/2000/svg">
<g clip-path="url(#clip0_129_367)">
<path d="M29.5777 17.9393C29.439 17.7979 29.2734 17.6858 29.0907 17.6094C28.9079 17.5331 28.7117 17.4941 28.5137 17.4949H12.787C12.7771 17.495 12.7674 17.492 12.7592 17.4864C12.7511 17.4807 12.7449 17.4727 12.7415 17.4634L10.218 6.63206C10.16 6.41184 10.0521 6.20789 9.90256 6.03612C9.75304 5.86435 9.56598 5.72937 9.35586 5.64156L9.3337 5.63337L4.05685 4.10739C3.69528 3.96005 3.29043 3.95989 2.92878 4.10703C2.56713 4.25418 2.27735 4.53695 2.12135 4.89487C2.04586 5.07317 2.00645 5.26465 2.00539 5.45827C2.00434 5.65189 2.04166 5.84377 2.11521 6.02288C2.18876 6.20198 2.29708 6.36475 2.4339 6.50175C2.57073 6.63874 2.73335 6.74727 2.91237 6.82104L2.93686 6.83037L7.52418 8.0775L10.1574 19.3253C10.2407 19.6435 10.4275 19.925 10.6883 20.1255C10.9492 20.3259 11.2692 20.4339 11.5982 20.4325H28.4659C28.8576 20.4389 29.2366 20.2934 29.5234 20.0265C29.8103 19.7597 29.9828 19.3922 30.0047 19.001C30.0093 18.8044 29.9738 18.6088 29.9004 18.4263C29.827 18.2437 29.7172 18.078 29.5777 17.9393V17.9393Z" fill="#4B9DE4"/>
<path d="M13.9701 22.0238C13.4451 22.0238 12.932 22.1795 12.4955 22.4711C12.059 22.7628 11.7189 23.1773 11.518 23.6623C11.3171 24.1473 11.2645 24.681 11.3669 25.1958C11.4693 25.7107 11.7221 26.1836 12.0933 26.5547C12.4645 26.9259 12.9374 27.1787 13.4523 27.2811C13.9671 27.3835 14.5008 27.331 14.9858 27.1301C15.4708 26.9292 15.8853 26.589 16.1769 26.1526C16.4686 25.7161 16.6242 25.2029 16.6242 24.678C16.6233 23.9744 16.3434 23.2998 15.8458 22.8022C15.3483 22.3047 14.6737 22.0247 13.9701 22.0238V22.0238Z" fill="#4B9DE4"/>
<path d="M26.0053 22.0238C25.4803 22.0238 24.9671 22.1795 24.5307 22.4711C24.0942 22.7628 23.754 23.1773 23.5531 23.6623C23.3522 24.1473 23.2997 24.681 23.4021 25.1958C23.5045 25.7107 23.7573 26.1836 24.1285 26.5547C24.4997 26.9259 24.9726 27.1787 25.4874 27.2811C26.0023 27.3835 26.536 27.331 27.021 27.1301C27.5059 26.9292 27.9205 26.589 28.2121 26.1526C28.5037 25.7161 28.6594 25.2029 28.6594 24.678C28.6585 23.9744 28.3786 23.2998 27.881 22.8022C27.3835 22.3047 26.7089 22.0247 26.0053 22.0238V22.0238Z" fill="#4B9DE4"/>
<path d="M15.5718 9.19516H27.893C27.9835 9.19516 28.0703 9.15926 28.1343 9.09526C28.1983 9.03126 28.2342 8.94444 28.2342 8.85394C28.2342 8.76343 28.1983 8.67661 28.1343 8.61261C28.0703 8.54862 27.9835 8.51271 27.893 8.51271H27.648C27.5013 8.22656 27.4249 7.9096 27.4249 7.58808C27.4249 7.26656 27.5013 6.94967 27.648 6.66352H27.893C27.9395 6.66624 27.986 6.65943 28.0298 6.64351C28.0735 6.62759 28.1136 6.6029 28.1475 6.57095C28.1814 6.53899 28.2083 6.50042 28.2268 6.45766C28.2452 6.41489 28.2548 6.36886 28.2548 6.32229C28.2548 6.27572 28.2452 6.22961 28.2268 6.18685C28.2083 6.14409 28.1814 6.10552 28.1475 6.07356C28.1136 6.04161 28.0735 6.01692 28.0298 6.001C27.986 5.98508 27.9395 5.97827 27.893 5.98099H15.5718C15.1666 5.98161 14.7783 6.14283 14.4918 6.42931C14.2053 6.7158 14.0441 7.10417 14.0435 7.50932V7.66683C14.0438 8.07208 14.2049 8.46064 14.4914 8.7472C14.778 9.03375 15.1665 9.19485 15.5718 9.19516V9.19516Z" fill="#4B9DE4"/>
<path d="M15.5718 14.829H27.893C27.9395 14.8317 27.986 14.8249 28.0298 14.809C28.0735 14.7931 28.1136 14.7684 28.1475 14.7364C28.1814 14.7045 28.2083 14.666 28.2268 14.6232C28.2452 14.5804 28.2548 14.5343 28.2548 14.4878C28.2548 14.4412 28.2452 14.3951 28.2268 14.3523C28.2083 14.3096 28.1814 14.2711 28.1475 14.2391C28.1136 14.2072 28.0735 14.1825 28.0298 14.1666C27.986 14.1506 27.9395 14.1438 27.893 14.1465H27.648C27.5013 13.8604 27.4249 13.5434 27.4249 13.2219C27.4249 12.9004 27.5013 12.5835 27.648 12.2974H27.893C27.9395 12.3001 27.986 12.2933 28.0298 12.2773C28.0735 12.2614 28.1136 12.2367 28.1475 12.2048C28.1814 12.1728 28.2083 12.1343 28.2268 12.0915C28.2452 12.0487 28.2548 12.0027 28.2548 11.9561C28.2548 11.9096 28.2452 11.8634 28.2268 11.8207C28.2083 11.7779 28.1814 11.7394 28.1475 11.7075C28.1136 11.6755 28.0735 11.6508 28.0298 11.6348C27.986 11.6189 27.9395 11.6121 27.893 11.6148H15.5718C15.1666 11.6154 14.7783 11.7767 14.4918 12.0631C14.2053 12.3496 14.0441 12.738 14.0435 13.1432V13.3007C14.0438 13.7059 14.2049 14.0945 14.4914 14.381C14.778 14.6676 15.1665 14.8287 15.5718 14.829V14.829Z" fill="#4B9DE4"/>
</g>
<defs>
<clipPath id="clip0_129_367">
<rect width="28" height="23.3333" fill="white" transform="translate(2 4)"/>
</clipPath>
</defs>
</svg>
