<svg width="32" height="32" viewBox="0 0 32 32" fill="none" xmlns="http://www.w3.org/2000/svg">
<path fill-rule="evenodd" clip-rule="evenodd" d="M14.97 4.05748C13.6902 4.25045 12.5467 4.832 11.6505 5.74577C10.6673 6.74819 10.1578 7.90572 10.0877 9.29609C9.9899 11.238 10.9835 13.0943 12.6965 14.1703C13.5391 14.6995 14.3518 14.9682 15.3361 15.043C17.1606 15.1816 18.7163 14.6316 19.9723 13.4039C20.9665 12.4321 21.4749 11.3746 21.5988 10.0213C21.7641 8.2134 21.0549 6.52969 19.633 5.35499C18.716 4.59732 17.8699 4.22312 16.704 4.05951C16.1439 3.98089 15.4832 3.98013 14.97 4.05748ZM10.7137 15.1436C8.59436 15.3583 7.12577 16.8168 6.44094 19.3872C5.98429 21.1011 5.86685 23.1606 6.16153 24.2866C6.39829 25.1912 7.17906 26.1092 8.08345 26.5462C8.49426 26.7447 9.08115 26.9093 9.5705 26.9633C9.86046 26.9953 12.0738 27.0062 16.3056 26.9966L22.6089 26.9823L23.0073 26.8774C24.4861 26.4881 25.501 25.5378 25.8704 24.1967C26.0627 23.4981 26.0381 21.8357 25.8159 20.5222C25.3219 17.6021 24.0755 15.849 22.104 15.301C21.6532 15.1757 20.8467 15.0804 20.6077 15.1242C20.379 15.1661 20.0593 15.33 19.3376 15.775C18.5688 16.2491 18.4623 16.3031 17.8866 16.5099C17.2198 16.7495 16.6696 16.8505 16.031 16.8506C15.3709 16.8506 14.8662 16.7639 14.2005 16.5361C13.5718 16.3211 13.5446 16.3073 12.5629 15.7093C12.0451 15.3939 11.6621 15.1919 11.5099 15.154C11.2498 15.0893 11.2498 15.0893 10.7137 15.1436Z" fill="#C0C0C0"/>
</svg>
