<svg width="23" height="22" viewBox="0 0 23 22" fill="none" xmlns="http://www.w3.org/2000/svg">
<path opacity="0.4" d="M2.66516 3.82994C3.84201 2.46073 5.33778 1.40224 7.02049 0.747886C8.7032 0.0935301 10.5211 -0.136576 12.3138 0.0778738C14.1065 0.292324 15.8188 0.944736 17.2997 1.97754C18.7806 3.01034 19.9845 4.39178 20.8052 5.99994H12.2852C11.0595 5.85901 9.81824 6.04175 8.68516 6.52994C8.04455 6.87255 7.48522 7.34908 7.04521 7.92714C6.60519 8.50519 6.29481 9.17122 6.13516 9.87994L2.66516 3.82994Z" fill="white"/>
<path opacity="0.4" d="M7.34515 10.9998C7.34515 11.7237 7.55981 12.4313 7.96198 13.0332C8.36414 13.6351 8.93575 14.1042 9.60453 14.3812C10.2733 14.6583 11.0092 14.7307 11.7192 14.5895C12.4292 14.4483 13.0813 14.0997 13.5932 13.5879C14.105 13.076 14.4536 12.4238 14.5948 11.7139C14.736 11.0039 14.6636 10.268 14.3866 9.59922C14.1095 8.93044 13.6404 8.35883 13.0385 7.95667C12.4367 7.5545 11.729 7.33984 11.0052 7.33984C10.0345 7.33984 9.10353 7.72545 8.41714 8.41183C7.73076 9.09822 7.34515 10.0292 7.34515 10.9998V10.9998Z" fill="white"/>
<path opacity="0.7" d="M12.4151 15.79C11.3324 16.1226 10.1681 16.0714 9.11869 15.6451C8.06931 15.2188 7.19917 14.4435 6.65514 13.45C5.64514 11.72 3.00514 7.1 1.78514 5C0.802016 6.50808 0.204052 8.23441 0.0437172 10.0275C-0.116618 11.8206 0.165576 13.6256 0.865537 15.2842C1.5655 16.9427 2.66183 18.4042 4.05833 19.5402C5.45483 20.6763 7.10881 21.4522 8.87514 21.8L12.4151 15.79Z" fill="white"/>
<path opacity="0.9" d="M14.3951 7.33984C15.2243 8.10986 15.7678 9.13839 15.9367 10.2573C16.1057 11.3762 15.8901 12.5193 15.3251 13.4998C14.4451 15.0098 11.6651 19.6998 10.3251 21.9798C12.1383 22.0917 13.9508 21.7527 15.601 20.9932C17.2512 20.2338 18.6876 19.0775 19.782 17.6275C20.8764 16.1776 21.5946 14.4792 21.8726 12.6841C22.1506 10.8889 21.9797 9.05285 21.3751 7.33984H14.3951Z" fill="white"/>
</svg>
