<svg width="80" height="80" viewBox="0 0 80 80" fill="none" xmlns="http://www.w3.org/2000/svg">
<path d="M40 80C62.0914 80 80 62.0914 80 40C80 17.9086 62.0914 0 40 0C17.9086 0 0 17.9086 0 40C0 62.0914 17.9086 80 40 80Z" fill="#F79100"/>
<path d="M39.9828 29.927C41.7644 29.9288 43.5187 29.4883 45.0882 28.6452C46.6578 27.802 47.9937 26.5825 48.9759 25.096L44.8529 23.011C44.1295 23.9288 43.1615 24.6235 42.0604 25.015C40.9594 25.4064 39.7701 25.4788 38.6297 25.2236C37.4894 24.9685 36.4443 24.3962 35.6151 23.5729C34.7858 22.7495 34.206 21.7086 33.9427 20.57H50.6607C50.719 20.1143 50.7486 19.6554 50.7489 19.196C50.7558 17.0652 50.1303 14.9803 48.9515 13.2052C47.7728 11.4302 46.0937 10.0448 44.1271 9.22462C42.1604 8.4044 39.9946 8.18619 37.9039 8.59764C35.8132 9.00909 33.8918 10.0317 32.3827 11.5359C30.8735 13.0402 29.8446 14.9584 29.4264 17.0478C29.0081 19.1371 29.2192 21.3036 30.0331 23.2729C30.8469 25.2421 32.2267 26.9256 33.9979 28.1102C35.7691 29.2947 37.852 29.927 39.9828 29.927V29.927ZM40.0218 12.801C41.1943 12.8001 42.343 13.132 43.3343 13.7581C44.3256 14.3843 45.119 15.2789 45.6219 16.338H34.4217C34.9237 15.278 35.7168 14.3826 36.7084 13.7561C37.6999 13.1297 38.849 12.7981 40.0218 12.8V12.801Z" fill="white"/>
<path d="M40 31.333C29.857 31.333 21.606 39.868 21.606 50.359C21.6061 50.4936 21.6327 50.6268 21.6843 50.751C21.736 50.8753 21.8117 50.9882 21.907 51.0832C22.0023 51.1782 22.1153 51.2535 22.2397 51.3047C22.3641 51.356 22.4975 51.3823 22.6321 51.382H57.3679C57.6396 51.3823 57.9004 51.2747 58.0928 51.0829C58.2852 50.891 58.3935 50.6307 58.394 50.359C58.394 39.868 50.142 31.333 40 31.333ZM37.7681 36.045L38.887 37.161L36.646 40.07L33.2458 34.914C34.9278 34.1136 36.7388 33.6186 38.594 33.452L37.7659 34.277C37.6498 34.3931 37.5579 34.531 37.4951 34.6828C37.4324 34.8346 37.4002 34.9972 37.4004 35.1614C37.4006 35.3257 37.433 35.4882 37.4961 35.6398C37.5592 35.7914 37.6517 35.9291 37.7681 36.045V36.045ZM43.3679 40.092L41.124 37.197L42.2791 36.045C42.3955 35.9291 42.488 35.7914 42.551 35.6397C42.6141 35.488 42.6465 35.3253 42.6465 35.161C42.6465 34.9967 42.6141 34.834 42.551 34.6823C42.488 34.5306 42.3955 34.3929 42.2791 34.277L41.4539 33.455C43.3094 33.6279 45.1195 34.1297 46.7991 34.937L43.3679 40.092ZM31.4529 35.914L39.136 47.573C39.2295 47.7143 39.3565 47.8303 39.5056 47.9107C39.6548 47.9912 39.8215 48.0335 39.991 48.034V48.034C40.16 48.0339 40.3265 47.9921 40.4756 47.9124C40.6247 47.8327 40.7519 47.7175 40.8459 47.577L48.5889 35.942C50.8349 37.4123 52.7027 39.3915 54.0405 41.7188C55.3784 44.0462 56.1488 46.6562 56.2891 49.337H23.7119C23.8525 46.6478 24.627 44.0301 25.9722 41.6973C27.3173 39.3645 29.1949 37.3828 31.4519 35.914H31.4529Z" fill="white"/>
<path d="M22.4431 63.9391C22.4053 63.4509 22.4661 62.9601 22.6218 62.4959C22.7775 62.0317 23.0249 61.6035 23.3493 61.2368C23.6738 60.87 24.0687 60.5723 24.5105 60.3612C24.9523 60.1502 25.432 60.0301 25.9211 60.0081C27.9731 60.0081 29.0403 61.514 29.0403 63.58C29.0458 63.8801 29.0142 64.1797 28.9463 64.472H24.3462C24.3582 64.7305 24.4212 64.984 24.5317 65.218C24.6422 65.4519 24.798 65.6617 24.99 65.8352C25.1819 66.0087 25.4064 66.1424 25.6504 66.2287C25.8943 66.315 26.1528 66.3522 26.4111 66.338C27.0094 66.3318 27.5929 66.1511 28.0901 65.8181L28.7573 67.018C27.9877 67.546 27.0785 67.8335 26.1452 67.8441C25.6379 67.8576 25.1334 67.7642 24.6645 67.57C24.1956 67.3758 23.7727 67.0851 23.4236 66.7168C23.0744 66.3485 22.8068 65.9108 22.6379 65.4323C22.469 64.9537 22.4025 64.4449 22.4431 63.9391ZM27.3613 63.179C27.3613 62.167 26.9082 61.527 25.9482 61.527C25.517 61.5413 25.1078 61.7208 24.8052 62.0282C24.5025 62.3357 24.3297 62.7477 24.3222 63.179H27.3613Z" fill="#F5F5F5"/>
<path d="M42.0239 62.193C41.4909 62.606 40.8909 63.033 40.3049 63.432C40.5357 64.2093 40.9345 64.9264 41.4734 65.5323C42.0122 66.1382 42.6778 66.6181 43.4229 66.938C43.011 67.3153 42.6563 67.7505 42.3699 68.23C41.5805 67.8175 40.882 67.251 40.3152 66.564C39.7484 65.877 39.325 65.0834 39.0701 64.23C38.9361 64.323 38.79 64.403 38.656 64.482C39.029 66.082 38.71 67.614 38.03 68.174C37.8294 68.3904 37.5826 68.559 37.3081 68.6674C37.0336 68.7757 36.7382 68.821 36.4438 68.8C36.1508 68.814 35.751 68.8 35.365 68.787C35.3356 68.2596 35.1898 67.7453 34.938 67.281C35.3365 67.3252 35.737 67.3473 36.1379 67.347C36.2758 67.3689 36.4171 67.3504 36.5447 67.2938C36.6723 67.2372 36.7807 67.1449 36.8569 67.028C37.1483 66.6428 37.2862 66.1631 37.2439 65.682C35.5795 66.7857 33.7667 67.6473 31.8599 68.241C31.6397 67.7688 31.3624 67.3254 31.0339 66.921C33.1987 66.4503 35.2383 65.5238 37.0168 64.203C36.9596 64.0304 36.8929 63.8612 36.8169 63.696C35.3088 64.6079 33.6974 65.3371 32.0168 65.868C31.7993 65.4325 31.5359 65.0215 31.231 64.642C32.9865 64.2603 34.6692 63.5988 36.2148 62.683C36.0948 62.537 35.9751 62.39 35.8411 62.244C34.6635 62.8466 33.4224 63.3161 32.1409 63.644C31.9129 63.204 31.6405 62.7885 31.3279 62.404C32.8202 62.1205 34.2648 61.6273 35.6189 60.939H33.3269V59.593H40.7759V60.939H37.812C37.562 61.1642 37.2945 61.3692 37.012 61.552C37.5043 62.0077 37.9029 62.5553 38.1851 63.164C39.0839 62.5714 39.9266 61.8979 40.7029 61.152L42.0239 62.193ZM32.9089 60.434H31.3499V57.427H36.1741C36.0831 57.1845 35.9761 56.9483 35.854 56.72L37.533 56.24C37.7612 56.6166 37.9531 57.014 38.106 57.427H42.8499V60.438H41.2249V58.866H32.9119L32.9089 60.434Z" fill="#F5F5F5"/>
<path d="M56.637 60.2611C56.4407 61.9829 55.9538 63.6591 55.197 65.2181C55.772 66.1526 56.5864 66.9164 57.5559 67.4301C57.1271 67.8375 56.7593 68.3046 56.4639 68.8171C55.5705 68.2784 54.8062 67.5503 54.2249 66.6841C53.441 67.597 52.4796 68.3408 51.3989 68.8701C51.1596 68.3534 50.8551 67.8694 50.4929 67.4301C51.6412 66.952 52.6334 66.1631 53.3579 65.1521C52.9809 64.2817 52.6778 63.3812 52.4519 62.4601C52.2519 62.7791 52.0519 63.1001 51.8389 63.3801C51.5643 63.0855 51.2707 62.8092 50.96 62.5531C50.4025 63.1831 49.7863 63.7586 49.1199 64.2721V64.6061L51.4519 64.4061V65.7511C50.6799 65.8311 49.8929 65.9121 49.1199 65.9781V67.2971C49.1199 67.9901 49.0009 68.3501 48.5339 68.5631C47.9115 68.7669 47.2547 68.8441 46.6021 68.7901C46.5221 68.3202 46.3691 67.8658 46.1489 67.4431C46.6689 67.4571 47.242 67.4571 47.415 67.4571C47.588 67.4571 47.6409 67.4041 47.6409 67.2701V66.1271C46.7219 66.2211 45.8409 66.3011 45.1089 66.3811L44.95 64.9681C45.696 64.9021 46.6289 64.8351 47.6409 64.7411V64.0091C48.032 63.7257 48.4018 63.4138 48.7471 63.0761H47.3611C46.8873 63.431 46.3885 63.7514 45.8689 64.0351C45.5516 63.6067 45.1994 63.2053 44.8159 62.8351C45.7304 62.3951 46.5819 61.8348 47.3479 61.1691H44.9761V59.8101H47.002V58.9171H45.4819V57.5851H47.002V56.3721H48.467V57.5851H49.6541V58.4381C49.99 57.8853 50.2797 57.3056 50.52 56.7051L51.9729 57.1321C51.5804 58.0743 51.0886 58.9721 50.5059 59.8101H51.4519V60.8631C52.0973 59.4363 52.5328 57.9236 52.7449 56.3721L54.3569 56.6251C54.2249 57.3581 54.0639 58.1041 53.8779 58.7971H57.4229V60.2631L56.637 60.2611ZM48.467 59.8081H48.6809C48.922 59.5251 49.1445 59.2268 49.3469 58.9151H48.467V59.8081ZM50.6531 62.1401C50.8938 61.8346 51.1078 61.5091 51.293 61.1671H49.427C49.2323 61.4062 49.0232 61.6333 48.801 61.8471H49.907L50.187 61.7671L50.6531 62.1401ZM53.478 60.2611C53.6477 61.32 53.92 62.3599 54.291 63.3661C54.6362 62.3592 54.8729 61.3182 54.9971 60.2611H53.478Z" fill="#F5F5F5"/>
</svg>
