<svg width="24" height="24" viewBox="0 0 24 24" fill="none" xmlns="http://www.w3.org/2000/svg">
<path fill-rule="evenodd" clip-rule="evenodd" d="M4.82213 3.04423C4.4578 3.11276 3.98635 3.37283 3.6846 3.67173C3.37131 3.98212 3.11887 4.44992 3.04583 4.85565C2.98472 5.19493 2.98472 18.8017 3.04583 19.141C3.11887 19.5467 3.37131 20.0145 3.6846 20.3249C3.99801 20.6354 4.46185 20.8845 4.86033 20.9563C5.01972 20.985 6.26527 21 8.49017 21H11.8773V17.2561V13.5122H11.1207H10.364V12.0188V10.5253H11.0947H11.8254L11.8492 9.574C11.8744 8.55988 11.9153 8.27858 12.1078 7.79061C12.4344 6.96303 13.0529 6.41351 13.9632 6.14224C14.2514 6.05635 14.3618 6.04985 15.7934 6.03458L17.3169 6.01834V7.31029V8.60223L16.3865 8.60231C15.3631 8.60236 15.2664 8.62167 15.0908 8.86083C15.0134 8.96623 15.005 9.04311 14.9934 9.75077L14.9807 10.5253H16.1718H17.3629L17.3396 10.6992C17.3269 10.7949 17.2701 11.4071 17.2135 12.0597C17.1569 12.7123 17.101 13.3061 17.0893 13.3793L17.0678 13.5122H15.9654H14.863V17.2561V21H16.88C18.1326 21 18.989 20.9834 19.1397 20.9563C19.5452 20.8832 20.0128 20.6306 20.3231 20.3172C20.6334 20.0037 20.8824 19.5396 20.9542 19.141C21.0153 18.8017 21.0153 5.19493 20.9542 4.85565C20.7969 3.9822 20.0127 3.19771 19.1397 3.04038C18.8274 2.98412 5.1223 2.9878 4.82213 3.04423Z" fill="white"/>
</svg>
