<svg width="963" height="1367" viewBox="0 0 963 1367" fill="none" xmlns="http://www.w3.org/2000/svg">
<g opacity="0.6">
<mask id="mask0_154_316" style="mask-type:alpha" maskUnits="userSpaceOnUse" x="0" y="0" width="963" height="1367">
<rect width="962.368" height="1367" fill="#3AADA0"/>
</mask>
<g mask="url(#mask0_154_316)">
<circle cx="-3.05176e-05" cy="1367" r="199.582" fill="#4CBF97"/>
<path d="M1909.68 1076.5C1909.68 1077.33 1909.68 1078.16 1909.68 1078.98C1909.54 1093.36 1908.69 1107.71 1907.13 1122.02C1907.13 1122.1 1907.13 1122.19 1907.13 1122.28C1907 1123.47 1906.87 1124.64 1906.73 1125.83C1906.5 1127.84 1906.25 1129.84 1905.98 1131.85C1902.79 1156.31 1897.52 1180.45 1890.22 1204.01V1204.01C1880.44 1235.85 1866.61 1266.3 1849.07 1294.61C1843.68 1303.27 1837.93 1311.65 1831.83 1319.75C1828.58 1324.05 1825.26 1328.24 1821.83 1332.37C1819.42 1335.26 1816.97 1338.1 1814.47 1340.9L1812.91 1342.62C1799.77 1357.05 1785.61 1370.51 1770.54 1382.9C1745.93 1403.29 1719.44 1421.03 1692.52 1437.49C1690.99 1438.44 1689.45 1439.37 1687.9 1440.23C1687.79 1440.31 1687.68 1440.37 1687.56 1440.43C1650.98 1462.55 1613.04 1482.51 1573.96 1498.49C1531.17 1516.03 1486.99 1528.78 1441.66 1534.36C1378.48 1542.12 1314.53 1535.81 1251.73 1524.95C1199.5 1515.98 1147.91 1503.65 1097.26 1488.05L1088.92 1485.43C1084.6 1484.06 1080.29 1482.65 1075.98 1481.22C1049.94 1472.61 1024.2 1463.04 998.742 1452.52C934.814 1426.19 873.743 1393.4 816.48 1354.65C809.189 1349.75 802.003 1344.74 794.922 1339.62C785.025 1332.49 775.247 1325.15 765.586 1317.61L759.626 1312.99C734.346 1293.19 710.66 1271.44 688.788 1247.93C659.371 1215.92 634.231 1179.8 617.704 1138.57C615.098 1132.09 612.71 1125.49 610.541 1118.76L610.336 1118.09C609.243 1114.68 608.231 1111.26 607.302 1107.7C605.935 1102.62 604.736 1097.47 603.706 1092.26C603.488 1091.26 603.296 1090.26 603.119 1089.25C599.851 1071.71 598.408 1053.87 598.812 1036.03C599.154 1020.4 600.985 1004.84 604.28 989.555V989.555C607.653 973.711 612.851 958.312 619.769 943.665V943.665C626.02 930.494 633.986 918.208 643.459 907.125V907.125C650.115 899.376 657.601 892.381 665.782 886.264C680.614 875.219 697.059 867.523 714.105 861.44C722.116 858.569 730.236 856.054 738.397 853.716C744.179 852.048 749.989 850.463 755.771 848.904L772.832 844.298C783.768 841.317 794.704 838.255 805.476 834.947C834.839 825.98 863.614 815.126 890.23 798.94C894.44 796.384 898.732 793.582 903.025 790.574C908.493 786.774 913.879 782.646 919.21 778.189C924.596 773.678 929.873 768.853 934.903 763.74C935.682 762.947 936.448 762.154 937.213 761.348C941.314 757.028 945.292 752.503 948.983 747.801C950.788 745.504 952.537 743.167 954.205 740.788C956.515 737.494 958.703 734.145 960.726 730.7C970.869 713.476 977.13 694.474 976.392 674.448C976.284 671.148 975.987 667.857 975.503 664.592C973.726 652.521 972.017 640.738 970.76 629.214C965.483 581.546 967.711 538.322 1003.49 497.708C1047.97 447.225 1117.78 436.931 1181.33 440.964C1365.07 452.584 1532.34 557.487 1679.33 682.376C1692.04 693.167 1704.6 704.103 1717 715.184C1720.13 717.973 1723.26 720.78 1726.4 723.605C1749.64 744.534 1772.52 766.242 1793.83 789.494C1795.55 791.381 1797.27 793.267 1798.97 795.168C1800.01 796.343 1801.06 797.505 1802.09 798.694C1808.73 806.213 1815.18 813.914 1821.43 821.797C1838.18 842.724 1852.97 865.146 1865.61 888.78C1884.97 925.869 1898.08 965.9 1904.41 1007.26V1007.26C1906.79 1022.28 1908.35 1037.41 1909.1 1052.6C1909.33 1057.07 1909.48 1061.55 1909.56 1066.02C1909.56 1067.46 1909.56 1068.88 1909.56 1070.32C1909.7 1072.4 1909.7 1074.42 1909.68 1076.5Z" fill="#4CBF97"/>
<path d="M218.717 -164.705C218.717 -164.23 218.717 -163.754 218.717 -163.286C218.634 -155.084 218.147 -146.902 217.259 -138.74C217.263 -138.691 217.263 -138.642 217.259 -138.592C217.188 -137.914 217.11 -137.243 217.032 -136.565C216.9 -135.419 216.76 -134.28 216.604 -133.134C214.786 -119.182 211.778 -105.411 207.613 -91.972V-91.972C202.034 -73.8117 194.146 -56.4428 184.144 -40.2913C181.066 -35.353 177.789 -30.5732 174.311 -25.952C172.456 -23.5036 170.561 -21.1099 168.604 -18.7551C167.232 -17.1072 165.833 -15.4854 164.409 -13.8895L163.52 -12.9071C156.026 -4.6786 147.948 2.99833 139.349 10.0639C125.314 21.6975 110.203 31.8184 94.8498 41.2064C93.9765 41.7445 93.0954 42.2747 92.2143 42.7659C92.1529 42.8106 92.0877 42.8497 92.0194 42.8828C71.154 55.4989 49.5167 66.883 27.2244 75.9981C2.81908 86.0021 -22.3816 93.277 -48.2372 96.4583C-84.276 100.887 -120.751 97.2848 -156.572 91.0937C-186.363 85.9749 -215.793 78.9428 -244.681 70.041L-249.437 68.5517C-251.901 67.7668 -254.362 66.9662 -256.821 66.1501C-271.672 61.2378 -286.357 55.7796 -300.875 49.7757C-337.339 34.7571 -372.173 16.053 -404.836 -6.04542C-408.994 -8.84206 -413.093 -11.7011 -417.132 -14.6225C-422.777 -18.6875 -428.355 -22.872 -433.865 -27.1762L-437.265 -29.8117C-451.684 -41.1031 -465.194 -53.5105 -477.67 -66.9192C-494.449 -85.1805 -508.789 -105.781 -518.215 -129.298C-519.702 -132.994 -521.064 -136.76 -522.301 -140.596L-522.418 -140.978C-523.042 -142.928 -523.619 -144.877 -524.149 -146.904C-524.929 -149.805 -525.612 -152.742 -526.2 -155.715C-526.325 -156.284 -526.434 -156.854 -526.535 -157.431C-528.399 -167.437 -529.222 -177.61 -528.991 -187.786C-528.796 -196.702 -527.752 -205.579 -525.872 -214.297V-214.297C-523.949 -223.334 -520.984 -232.117 -517.038 -240.472V-240.472C-513.472 -247.985 -508.928 -254.993 -503.525 -261.314V-261.314C-499.729 -265.734 -495.459 -269.724 -490.793 -273.213C-482.333 -279.513 -472.952 -283.903 -463.229 -287.373C-458.66 -289.011 -454.029 -290.445 -449.374 -291.779C-446.075 -292.73 -442.762 -293.634 -439.463 -294.523L-429.732 -297.151C-423.495 -298.851 -417.257 -300.597 -411.113 -302.484C-394.364 -307.599 -377.951 -313.79 -362.77 -323.022C-360.368 -324.481 -357.92 -326.079 -355.472 -327.794C-352.353 -329.962 -349.281 -332.317 -346.24 -334.859C-343.168 -337.432 -340.158 -340.184 -337.288 -343.101C-336.844 -343.553 -336.407 -344.005 -335.971 -344.465C-333.632 -346.929 -331.363 -349.51 -329.257 -352.192C-328.228 -353.502 -327.23 -354.836 -326.279 -356.192C-324.961 -358.071 -323.713 -359.982 -322.559 -361.947C-316.774 -371.771 -313.203 -382.61 -313.624 -394.033C-313.685 -395.915 -313.855 -397.792 -314.131 -399.655C-315.144 -406.54 -316.119 -413.261 -316.836 -419.834C-319.846 -447.023 -318.575 -471.679 -298.17 -494.844C-272.797 -523.64 -232.977 -529.511 -196.728 -527.211C-91.9251 -520.583 3.48186 -460.747 87.3255 -389.51C94.5769 -383.356 101.74 -377.118 108.815 -370.797C110.598 -369.206 112.383 -367.605 114.171 -365.994C127.427 -354.056 140.479 -341.674 152.635 -328.41C153.618 -327.334 154.6 -326.258 155.567 -325.175C156.159 -324.504 156.76 -323.841 157.345 -323.163C161.134 -318.874 164.812 -314.482 168.378 -309.985C177.93 -298.048 186.366 -285.259 193.578 -271.778C204.622 -250.623 212.099 -227.789 215.707 -204.199V-204.199C217.064 -195.632 217.956 -186.998 218.381 -178.335C218.514 -175.785 218.6 -173.228 218.646 -170.678C218.646 -169.86 218.646 -169.049 218.646 -168.23C218.724 -167.045 218.724 -165.891 218.717 -164.705Z" fill="#4CBF97"/>
</g>
</g>
</svg>
