<svg width="24" height="24" viewBox="0 0 24 24" fill="none" xmlns="http://www.w3.org/2000/svg">
<path fill-rule="evenodd" clip-rule="evenodd" d="M11.0016 2.00882C9.67636 2.15597 8.65293 2.4058 7.64198 2.82901C3.59994 4.52106 1.37579 8.2425 2.15395 12.0117C2.64661 14.398 4.32293 16.5094 6.72975 17.7753C7.59966 18.2328 8.73479 18.6323 9.67311 18.811C10.7026 19.0071 10.9191 19.0805 11.1354 19.3066C11.3312 19.5114 11.3457 19.9327 11.1915 20.9415C11.1338 21.3188 11.0995 21.6681 11.1141 21.7289C11.2081 22.1207 11.6372 22.0885 12.462 21.6278C13.6022 20.9909 15.5135 19.6648 16.9087 18.5427C18.222 17.4865 19.4504 16.3003 20.1609 15.4022C21.8373 13.2833 22.3703 11.0091 21.7489 8.62707C20.9537 5.57896 18.1708 3.09809 14.6158 2.2681C13.7755 2.07194 13.274 2.01728 12.1933 2.00409C11.6238 1.99714 11.0875 1.99926 11.0016 2.00882ZM6.3361 8.09205C6.40045 8.12682 6.48743 8.21415 6.52935 8.28609C6.6021 8.41081 6.60566 8.50435 6.60578 10.3062L6.60593 12.1955L7.33854 12.1957C7.74149 12.1959 8.1337 12.2141 8.21013 12.2363C8.64391 12.3623 8.73288 12.9759 8.35251 13.2184C8.23584 13.2928 8.14898 13.2982 7.06042 13.2983L5.89345 13.2984L5.7456 13.1439C5.62279 13.0155 5.59341 12.9516 5.57188 12.766C5.55766 12.6432 5.55153 11.6136 5.55825 10.4779C5.56958 8.5693 5.57583 8.40464 5.641 8.30072C5.79592 8.05361 6.09756 7.96309 6.3361 8.09205ZM9.85261 8.09205C9.91696 8.12682 10.0039 8.21415 10.0459 8.28609C10.1191 8.41166 10.1222 8.50758 10.1223 10.6991L10.1224 12.9812L9.97077 13.1399C9.83319 13.2837 9.80002 13.2984 9.6145 13.2984C9.42899 13.2984 9.39582 13.2837 9.25824 13.1399L9.10656 12.9812V10.7072C9.10656 8.19773 9.09973 8.27008 9.35268 8.10884C9.50342 8.01272 9.69406 8.00631 9.85261 8.09205ZM11.627 8.09295C11.7248 8.14144 12.0121 8.52131 12.8051 9.65093L13.8539 11.1447L13.8734 9.76037C13.891 8.51273 13.8999 8.36526 13.9636 8.26718C14.1254 8.01799 14.5194 7.96129 14.721 8.15819C14.9335 8.36567 14.9283 8.30386 14.9283 10.6656C14.9283 12.6282 14.9215 12.8722 14.8631 13.0009C14.7378 13.2769 14.3799 13.385 14.1274 13.2229C14.0591 13.1791 13.5858 12.5398 12.9943 11.6923C12.4355 10.8919 11.9652 10.2365 11.9491 10.2359C11.933 10.2352 11.9198 10.8508 11.9198 11.6038V12.9728L11.7895 13.1215C11.6755 13.2515 11.6313 13.2726 11.438 13.2893C11.2225 13.308 11.213 13.3044 11.0604 13.1449L10.9039 12.9812V10.7072C10.9039 8.19773 10.8971 8.27008 11.15 8.10884C11.3014 8.01227 11.4542 8.00721 11.627 8.09295ZM18.3939 8.10868C18.5722 8.22236 18.6467 8.36256 18.6467 8.58442C18.6467 8.81008 18.5603 8.9555 18.3639 9.06016C18.2498 9.12103 18.1158 9.13161 17.4583 9.13165L16.6866 9.13173V9.62193V10.1121H17.4498C18.2973 10.1121 18.4122 10.1371 18.5595 10.3535C18.6654 10.509 18.6768 10.8034 18.5827 10.9535C18.5475 11.0096 18.4626 11.0914 18.3939 11.1352C18.281 11.2072 18.1932 11.2148 17.4778 11.2149L16.6866 11.2151V11.7053V12.1955H17.4046C18.214 12.1955 18.3124 12.2082 18.4602 12.3322C18.7058 12.5381 18.709 12.9333 18.4671 13.1657L18.3288 13.2984H17.1736C15.8965 13.2984 15.8539 13.291 15.7082 13.0411C15.635 12.9156 15.6319 12.8201 15.6319 10.6636C15.6319 8.48283 15.6343 8.41289 15.7107 8.28176C15.849 8.04471 15.9213 8.03213 17.1555 8.03053C18.1918 8.02919 18.2777 8.03462 18.3939 8.10868Z" fill="white"/>
</svg>
