<svg width="142" height="37" viewBox="0 0 142 37" fill="none" xmlns="http://www.w3.org/2000/svg">
<path d="M67.9023 5.60986H63.1106V7.01232H67.9023V5.60986Z" fill="#0F5C9E"/>
<path d="M67.9023 5.60986H63.1106V7.01232H67.9023V5.60986Z" fill="#0F5C9E"/>
<path d="M58.6683 16.2451L59.6044 14.8426H65.9143L64.2793 15.8945L64.9805 16.362L65.7986 16.8283C64.3962 17.062 62.8768 17.2957 61.4744 17.2957L57.6176 17.5295C58.0839 17.0632 58.4357 16.7126 58.6683 16.2451ZM50.9548 13.0884V14.9595H57.2658C56.6815 15.7776 55.9791 16.7126 54.9284 17.6475C54.6947 17.6475 54.3441 17.7644 53.7597 17.7644H52.3572L52.7078 19.7512C54.8115 19.4006 57.2658 19.2849 60.1876 19.2849C62.6419 19.0512 65.0951 18.8174 67.6662 18.5825L68.4843 19.1669L69.5362 20.1018L70.9375 18.5825C68.8338 16.9475 67.1987 15.7788 65.912 15.0764H71.4049V13.2064H50.9524V13.0884H50.9548Z" fill="#0F5C9E"/>
<path d="M52.3584 0.116943V1.63627H59.837V2.80499H51.4235V9.58236H53.7609V4.32315H59.837V9.34978H62.2925V4.32315H68.7204V9.34978H71.0579V2.80499H62.2925V1.63627H69.7711V0.116943H52.3584Z" fill="#0F5C9E"/>
<path d="M69.4216 10.4016H52.9427V11.9209H69.4216V10.4016Z" fill="#0F5C9E"/>
<path d="M59.1358 5.4917H54.461V6.89416H59.1358V5.4917Z" fill="#0F5C9E"/>
<path d="M59.1358 5.4917H54.461V6.89416H59.1358V5.4917Z" fill="#0F5C9E"/>
<path d="M59.1358 8.06421H54.461V9.46667H59.1358V8.06421Z" fill="#0F5C9E"/>
<path d="M59.1358 8.06421H54.461V9.46667H59.1358V8.06421Z" fill="#0F5C9E"/>
<path d="M67.9023 8.06421H63.1106V9.46667H67.9023V8.06421Z" fill="#0F5C9E"/>
<path d="M67.9023 8.06421H63.1106V9.46667H67.9023V8.06421Z" fill="#0F5C9E"/>
<path d="M81.81 7.12923V8.8823H87.1861L86.9524 9.58353C86.8355 10.051 86.7186 10.4016 86.486 10.6354H82.0438V19.9851H84.0306V12.3884H85.6668V19.2839H87.4198V12.3884H88.9392V19.2839H90.6922V12.3884H92.3284V17.4139C92.3284 17.7645 92.0947 17.9983 91.7441 17.9983H90.8079L91.2754 19.8694H92.4441C93.6128 19.8694 94.1972 19.167 94.1972 17.7645V10.6354H88.5874L88.8211 9.7004L89.0537 8.8823H94.8973V7.12923H81.81ZM75.0303 6.89549C75.1483 7.71359 75.3821 8.8823 75.4978 10.5197L75.8484 15.0765L77.7195 14.4921C77.7195 14.1415 77.7195 13.7909 77.6015 13.4415C77.4846 10.6365 77.2509 8.29911 76.9002 6.42917L75.0303 6.89549ZM79.1208 7.12923C78.7702 9.93414 78.4196 12.6222 77.9521 15.1934C77.9521 15.4259 77.8352 15.7777 77.8352 16.1283C77.4846 16.2452 76.9002 16.4789 76.3159 16.5946L74.6797 16.9464L75.1472 19.0501L78.6533 17.9983C79.5883 17.7645 80.6401 17.4139 81.5751 17.0633V14.9596L80.757 15.3102L79.9389 15.6608L80.6413 11.3366C80.8739 10.1679 81.1076 8.53285 81.3425 6.66174L79.3557 6.31113C79.1208 6.54487 79.1208 6.89549 79.1208 7.12923ZM76.317 0.93504C76.6677 1.5194 77.0183 2.3375 77.3677 3.38934H74.9134V5.26045H81.5751V3.38934H79.4714C79.4714 3.27247 79.3534 3.1556 79.3534 3.03873C79.2365 2.45437 79.0028 2.10376 79.0028 1.87001L78.6521 0.93504C78.5341 0.817 78.5341 0.584426 78.4184 0.350683L76.317 0.93504ZM87.1849 0.116943V3.85683H84.1463V0.584426H82.1595V5.6099H94.1972V0.584426H92.2104V3.85683H89.2886V0.116943H87.1849Z" fill="#0F5C9E"/>
<path d="M102.263 11.6872V13.3222H111.379L109.275 13.9066C108.457 14.1403 107.872 14.2572 107.639 14.2572V15.1933H98.1721V16.9464H107.639V17.7633C107.639 18.2308 107.405 18.3477 106.937 18.3477L103.898 18.2308L104.365 19.9839H107.521C108.806 19.9839 109.506 19.3995 109.506 18.1139V17.6464V16.8283H118.505V15.0753H109.506C111.259 14.4909 112.78 13.9066 114.181 13.2053V11.686H102.263V11.6872ZM109.741 5.02549C109.507 5.25924 109.275 5.37611 108.923 5.60985C108.69 5.37611 108.457 5.25924 107.988 4.90745L107.287 4.44114L106.118 5.37611L106.819 5.84359L107.522 6.42795L107.404 6.54483C106.819 6.77857 106.235 7.01231 105.769 7.12918C105.651 7.12918 105.535 7.12918 105.301 7.24605L106.236 8.64851C106.354 8.64851 106.354 8.53164 106.47 8.53164C107.639 8.18102 108.34 7.71354 108.807 7.36292L109.392 7.82924L109.976 8.53164L111.379 7.4798L110.794 7.12918L110.21 6.54483L110.911 5.96047L111.729 5.25924L110.56 4.3231L109.741 5.02549ZM99.5734 0.934992L99.8071 9.11599H98.7564V13.9077H100.742V10.7522H116.403V13.9077H118.39V9.11599H117.221L117.455 0.701252H112.077V2.45432H115.584V3.62304H112.428V5.14237H115.584V6.31108H112.428V7.83041H115.468V9.23287H101.794V7.83041H105.066V6.19538H101.794V5.02667H105.183V3.50733H101.794V2.45549C103.547 2.33862 104.833 2.22175 105.651 1.87114L104.716 0.351807C103.198 0.584381 101.56 0.816952 99.5734 0.934992ZM106.001 1.05187L106.704 1.51935L107.405 2.10371C107.288 2.22058 106.939 2.33745 106.354 2.57003L104.952 3.03751L106.002 4.43997L107.405 3.73757C107.989 3.505 108.34 3.27126 108.574 3.15322L109.158 3.6207L109.742 4.32193L111.029 3.38695L110.562 2.68573L109.977 2.21824L110.678 1.75192C110.912 1.63388 111.03 1.40014 111.381 1.16757L110.212 0.115723C109.978 0.466337 109.745 0.70008 109.628 0.70008L108.925 1.28444L107.99 0.58321L107.172 0.115723L106.001 1.05187Z" fill="#0F5C9E"/>
<path d="M129.376 9.81722V11.6883H132.297V11.8052V12.039C132.297 13.674 131.947 14.9607 131.247 15.8957C130.544 16.8307 129.26 17.6488 127.507 18.2331L128.792 19.9862C130.779 19.1681 132.182 18.1163 133.001 16.9476C133.82 15.7788 134.286 14.2583 134.286 12.3896V12.1558V11.8052V11.6883H135.806V17.1801C135.806 18.1163 136.04 18.8163 136.39 19.1669C136.742 19.5175 137.326 19.6344 138.026 19.6344H138.26H139.078C140.129 19.6344 140.831 19.5164 141.298 19.1669C141.765 18.8163 141.882 17.5319 141.882 15.4271V15.0764V14.9596L140.129 14.4921C140.129 16.2451 140.129 17.297 140.012 17.5319C139.894 17.7645 139.661 17.8825 139.077 17.8825H138.61C138.142 17.8825 137.791 17.6488 137.791 17.1801V11.6883H142V9.81722H129.376V9.81722ZM122.246 0.934992V19.985H124.35V2.68806H126.687L126.103 5.02549C125.869 5.84359 125.637 6.66053 125.285 7.4798C126.454 9.58348 127.156 11.2197 127.156 12.1547C127.156 12.739 126.922 13.0896 126.572 13.2065C126.572 13.2065 126.454 13.2065 126.338 13.2065C126.222 13.2065 126.104 13.2065 125.987 13.2065C125.52 13.2065 125.052 13.2065 124.701 13.0885L125.285 15.0753C125.403 15.0753 125.637 15.0753 125.987 15.0753C128.091 15.0753 129.143 14.1403 129.143 12.1535C129.143 10.9848 128.559 9.34974 127.39 7.36175C127.622 6.65936 127.974 5.84242 128.207 4.79058L128.909 2.10254V0.933824H122.246V0.934992ZM131.362 3.97365H139.661V6.07734H131.362V3.97365ZM133.466 0.350635L133.934 1.16874C134.05 1.28561 134.167 1.51935 134.284 1.75309C134.284 1.86996 134.402 1.86996 134.402 2.10371H129.376V6.77856H131.012V7.82924H140.011V6.89427H141.646V2.10254H136.387L136.036 1.0507C135.919 0.700083 135.802 0.466337 135.57 0.115723L133.466 0.350635Z" fill="#0F5C9E"/>
<path d="M9.70032 10.4016C9.58228 10.6353 9.58229 10.869 9.58229 11.104C9.58229 11.4546 9.70033 11.6883 9.93407 11.9209C10.1666 12.2727 10.5184 12.3884 10.869 12.3884C11.1028 12.3884 11.2197 12.3884 11.3354 12.2715C11.9197 11.9197 12.0378 11.5691 12.0378 10.9847C12.0378 10.8679 12.0378 10.6341 12.0378 10.4004C11.804 9.69916 11.2197 9.46542 10.751 9.46542C10.2847 9.70033 9.81603 9.93407 9.70032 10.4016ZM16.244 9.46659C15.7776 9.8172 15.7776 10.0509 15.6596 10.6353C15.7776 11.1028 15.6596 11.3365 16.0102 11.6871C16.244 11.9197 16.4777 12.0378 16.8283 12.0378C17.4127 12.0378 17.6464 11.804 17.997 11.3354C18.1151 11.1028 18.1151 10.869 18.1151 10.6341C18.1151 10.2835 17.997 9.9329 17.7633 9.69916C17.5307 9.46542 17.1789 9.23168 16.8283 9.23168C16.7126 9.34972 16.4777 9.34972 16.244 9.46659ZM9.58229 7.01229V8.29787H12.6221V12.3884L12.5041 13.2065C12.1535 14.6089 10.6341 15.8945 9.70032 16.1283V19.985C10.9859 18.9332 11.9197 17.7645 12.3884 16.1283H12.6221V19.985H14.9595V8.06413V7.01345H9.58229V7.01229ZM15.8933 7.01229V8.29787H18.932V12.3884L18.8151 13.2065C18.4645 14.6089 16.9452 15.8945 16.0102 16.1283V19.985C17.297 18.9332 18.2308 17.7645 18.6994 16.1283H18.932V19.985H21.2694V8.06413V7.01345H15.8933V7.01229ZM2.57 11.2197C2.45313 10.9859 2.45313 10.4016 2.45313 10.0509H6.19301C6.19301 10.0509 6.19301 10.1678 6.19301 10.4016C6.19301 10.7522 6.07498 11.104 5.8424 11.5703C5.37492 12.1546 4.90626 12.3884 3.85558 12.3884C3.3881 12.1546 2.80374 11.804 2.57 11.2197ZM2.45313 6.77854H6.19301V8.29787H2.45313V6.77854ZM3.15436 0.232576V1.86877H0V3.38811H3.15436V5.0243H0V10.7498L0.350609 12.1523C1.40128 13.5547 2.10368 13.7885 3.15436 14.0234V15.5427H0V16.9452H3.15436V19.9838H5.60982V16.8283H8.64849V15.4259H5.60982V13.9065C6.19418 13.5559 6.19418 14.1403 7.71351 12.8559C7.71351 12.8559 8.64849 11.4534 8.64849 10.4004V5.0243H5.60982V3.38811H8.64849V1.98565H5.60982V0.232576H3.15436V0.232576ZM13.3222 0.350613C11.3354 0.81693 10.2835 2.4543 9.69916 4.32308C9.69916 4.79056 9.58112 5.60983 9.58112 5.60983H11.8017C11.9185 4.90743 12.1523 4.32308 12.5029 3.73872C13.2053 2.57 14.374 1.98565 15.4247 1.98565C15.7765 1.98565 16.1271 1.98564 16.4765 2.10368C17.7621 2.68804 18.5802 3.97363 18.9308 5.49179H21.1514C20.9176 4.44112 20.9176 3.3881 20.2164 2.45313L19.6321 1.63503C18.3453 0.466319 16.8271 0 15.3078 0C14.6089 0.116871 13.9065 0.232573 13.3222 0.350613Z" fill="#0F5C9E"/>
<path d="M40.3206 0.116843V2.92175H36.4627V4.44108H40.3206V6.4279C39.2688 6.66047 40.3206 6.4279 39.1519 7.01226C37.8652 7.59661 36.4627 9.7003 36.4627 11.5691V15.0752V19.9838H38.6833V11.4522C38.6833 9.93287 38.6833 9.816 39.3845 8.99674C39.6182 8.76416 39.852 8.41238 40.3206 8.41238V17.1777V19.2826V19.9838H42.7749V11.2185C42.7749 10.9847 42.7749 10.6341 42.7749 10.2835C42.7749 9.46539 42.7749 8.41238 42.7749 8.41238C43.593 8.76416 44.2943 9.58109 44.2943 10.6329V19.9827H46.6317V12.0354V11.333C46.6317 9.57992 44.528 6.77618 42.7749 6.42556V4.43875H46.6317V2.91942H42.7749V0.114502H40.3206V0.116843ZM28.9841 0.116843V2.92175H25.2442V4.44108H28.9841V6.4279C27.9323 6.66047 28.9841 6.4279 27.8154 7.01226C26.5286 7.59661 25.1273 9.7003 25.1273 11.5691V15.0752V19.9838H27.3467V11.4522C27.3467 9.93287 27.3467 9.816 28.0491 9.11477C28.2817 8.88103 28.5154 8.53042 28.9841 8.53042V17.2958V19.3995V19.9838H31.4384V11.2185C31.4384 10.9847 31.4384 10.6341 31.4384 10.1666C31.4384 9.34969 31.4384 8.29667 31.4384 8.29667C32.2565 8.64729 32.9577 9.46539 32.9577 10.5172V19.867H35.2952V11.9185V11.2173C35.2952 9.46422 33.1915 6.6593 31.4384 6.30869V4.43875H35.2952V2.91942H31.4384V0.114502H28.9841V0.116843Z" fill="#0F5C9E"/>
<path d="M18.6839 35.168C20.7359 35.168 21.9479 33.932 21.9479 32.48C21.9479 31.196 21.2399 30.512 20.1599 30.068L18.9959 29.576C18.2399 29.276 17.6159 29.048 17.6159 28.412C17.6159 27.824 18.1079 27.476 18.8879 27.476C19.6199 27.476 20.2079 27.74 20.7719 28.208L21.6719 27.092C20.9519 26.36 19.9199 25.952 18.8879 25.952C17.0879 25.952 15.8159 27.068 15.8159 28.52C15.8159 29.816 16.7159 30.536 17.6159 30.908L18.8039 31.412C19.5959 31.748 20.1359 31.952 20.1359 32.612C20.1359 33.236 19.6439 33.632 18.7199 33.632C17.9399 33.632 17.0999 33.236 16.4639 32.648L15.4439 33.872C16.3079 34.7 17.4959 35.168 18.6839 35.168ZM24.1201 35H25.7161V31.292C25.7161 30.452 25.5721 29.216 25.4881 28.376H25.5361L26.2441 30.464L27.6241 34.196H28.6441L30.0121 30.464L30.7321 28.376H30.7921C30.6961 29.216 30.5641 30.452 30.5641 31.292V35H32.1841V26.108H30.2161L28.7401 30.272C28.5481 30.824 28.3921 31.412 28.2001 31.976H28.1401C27.9601 31.412 27.7921 30.824 27.6001 30.272L26.0881 26.108H24.1201V35ZM36.8943 30.368C37.1583 29.444 37.4223 28.436 37.6503 27.464H37.7103C37.9623 28.424 38.2023 29.444 38.4783 30.368L38.7423 31.34H36.6303L36.8943 30.368ZM33.8223 35H35.6223L36.2463 32.72H39.1263L39.7503 35H41.6103L38.7543 26.108H36.6663L33.8223 35ZM43.2498 35H45.0258V31.64H46.2618L48.0858 35H50.0658L47.9898 31.364C49.0098 30.968 49.6818 30.14 49.6818 28.808C49.6818 26.768 48.2058 26.108 46.3458 26.108H43.2498V35ZM45.0258 30.236V27.524H46.1778C47.3178 27.524 47.9538 27.848 47.9538 28.808C47.9538 29.756 47.3178 30.236 46.1778 30.236H45.0258ZM53.5709 35H55.3469V27.596H57.8669V26.108H51.0749V27.596H53.5709V35ZM63.2256 35H68.6136V33.512H65.0016V26.108H63.2256V35ZM70.7631 35H76.3431V33.512H72.5391V31.136H75.6591V29.648H72.5391V27.596H76.2111V26.108H70.7631V35ZM80.6779 30.368C80.9419 29.444 81.2059 28.436 81.4339 27.464H81.4939C81.7459 28.424 81.9859 29.444 82.2619 30.368L82.5259 31.34H80.4139L80.6779 30.368ZM77.6059 35H79.4059L80.0299 32.72H82.9099L83.5339 35H85.3939L82.5379 26.108H80.4499L77.6059 35ZM87.0334 35H88.8094V31.64H90.0454L91.8694 35H93.8494L91.7734 31.364C92.7934 30.968 93.4654 30.14 93.4654 28.808C93.4654 26.768 91.9894 26.108 90.1294 26.108H87.0334V35ZM88.8094 30.236V27.524H89.9614C91.1014 27.524 91.7374 27.848 91.7374 28.808C91.7374 29.756 91.1014 30.236 89.9614 30.236H88.8094ZM95.8131 35H97.4931V31.436C97.4931 30.416 97.3611 29.3 97.2771 28.34H97.3371L98.2371 30.248L100.805 35H102.605V26.108H100.925V29.66C100.925 30.668 101.069 31.844 101.153 32.768H101.093L100.205 30.848L97.6251 26.108H95.8131V35ZM105.401 35H107.177V26.108H105.401V35ZM109.962 35H111.642V31.436C111.642 30.416 111.51 29.3 111.426 28.34H111.486L112.386 30.248L114.954 35H116.754V26.108H115.074V29.66C115.074 30.668 115.218 31.844 115.302 32.768H115.242L114.354 30.848L111.774 26.108H109.962V35ZM123.367 35.168C124.603 35.168 125.647 34.688 126.247 34.1V30.092H123.091V31.544H124.663V33.296C124.411 33.512 123.979 33.632 123.559 33.632C121.807 33.632 120.919 32.468 120.919 30.536C120.919 28.628 121.951 27.476 123.427 27.476C124.231 27.476 124.735 27.8 125.179 28.22L126.115 27.092C125.539 26.504 124.651 25.952 123.367 25.952C121.003 25.952 119.107 27.668 119.107 30.596C119.107 33.56 120.955 35.168 123.367 35.168Z" fill="#C0C0C0"/>
<line x1="4.43723e-08" y1="29.5" x2="8.24516" y2="29.5" stroke="#333333"/>
<line x1="133.755" y1="30.5" x2="142" y2="30.5" stroke="#333333"/>
</svg>
