<svg width="32" height="32" viewBox="0 0 32 32" fill="none" xmlns="http://www.w3.org/2000/svg">
<path fill-rule="evenodd" clip-rule="evenodd" d="M13.844 6.07411C13.1686 6.29037 12.7434 6.83093 12.6846 7.54813L12.657 7.8846L9.84783 7.90688L7.03866 7.92917L6.73846 8.04505C6.31627 8.20805 6.0301 8.40212 5.70729 8.74433C5.37967 9.09163 5.11561 9.60683 5.04001 10.0463C5.00472 10.2515 4.99394 12.1689 5.00311 16.6206L5.01605 22.9051L5.1184 23.204C5.17467 23.3684 5.32286 23.6544 5.44777 23.8396C5.79763 24.3583 6.3005 24.7191 6.9511 24.9182C7.2068 24.9964 7.62292 25 16.5 25C25.3842 25 25.793 24.9965 26.0511 24.918C26.9225 24.6531 27.5576 24.0628 27.8627 23.2341L27.9839 22.9051L27.9968 16.6206C28.0061 12.1628 27.9954 10.2518 27.9599 10.0463C27.8842 9.6067 27.6202 9.09159 27.2926 8.74433C26.9698 8.40212 26.6836 8.20805 26.2614 8.04505L25.9612 7.92917L23.1521 7.90688L20.3429 7.8846L20.315 7.5447C20.2967 7.32104 20.2472 7.1181 20.1702 6.9515C20.0138 6.61262 19.6378 6.25208 19.3 6.11685L19.0394 6.0126L16.5674 6.00311C14.2911 5.99437 14.0754 5.99999 13.844 6.07411ZM18.4327 8.84288V9.77888H16.5H14.5672V8.84288V7.90688H16.5H18.4327V8.84288ZM12.9299 12.7702C13.6925 13.0016 14.3577 13.7397 14.5254 14.5405C14.598 14.8872 14.5571 15.4931 14.4394 15.8166C14.0304 16.9401 12.8101 17.6032 11.6503 17.3321C10.8729 17.1503 10.2006 16.5578 9.93076 15.8166C9.813 15.4931 9.77214 14.8872 9.84473 14.5405C9.92172 14.1728 10.1624 13.7123 10.4285 13.4237C11.0639 12.7346 12.0037 12.4891 12.9299 12.7702ZM24.7978 13.2359C25.0337 13.4106 25.1073 13.553 25.1073 13.8349C25.1073 14.1167 25.0336 14.2592 24.7978 14.4338C24.6755 14.5244 24.6325 14.5257 21.7812 14.5257C18.9167 14.5257 18.8875 14.5248 18.7618 14.4325C18.3612 14.1381 18.3174 13.6351 18.6644 13.3138C18.7224 13.2602 18.8204 13.196 18.8822 13.1713C18.9544 13.1424 20.0089 13.1295 21.8341 13.1352C24.6249 13.1439 24.6759 13.1456 24.7978 13.2359ZM24.7828 17.0374C25.0131 17.1794 25.1465 17.445 25.1171 17.7032C25.0916 17.9283 24.9857 18.0911 24.7706 18.2363L24.622 18.3366H21.7926C19.2751 18.3366 18.9462 18.3286 18.8094 18.2642C18.5833 18.1579 18.4628 17.9631 18.4422 17.6709C18.4203 17.3605 18.5412 17.1583 18.8375 17.0095L19.0394 16.9081L21.8261 16.9204L24.6128 16.9326L24.7828 17.0374ZM14.5672 18.4442C15.2145 18.6555 15.7026 19.0104 16.0458 19.5193C16.3597 19.9847 16.4596 20.322 16.4881 21.0128C16.509 21.5189 16.5023 21.5893 16.4171 21.7549C16.3646 21.857 16.2478 21.9842 16.153 22.0426L15.9831 22.1474H12.1851H8.38706L8.21712 22.0426C8.12273 21.9845 8.00555 21.857 7.95359 21.756C7.86936 21.5923 7.86217 21.5183 7.88145 21.0139C7.90779 20.3239 8.00663 19.9904 8.32436 19.5193C8.73872 18.9049 9.4363 18.4726 10.1849 18.3663C10.2591 18.3557 11.2198 18.3508 12.3199 18.3553C14.1155 18.3626 14.3453 18.3717 14.5672 18.4442ZM24.7706 20.8437C24.9857 20.9889 25.0916 21.1518 25.1171 21.3768C25.1465 21.635 25.0131 21.9006 24.7828 22.0426L24.6128 22.1474L21.8261 22.1596L19.0394 22.1719L18.8375 22.0705C18.5412 21.9217 18.4203 21.7195 18.4422 21.4091C18.4626 21.1204 18.5811 20.9256 18.802 20.8176C18.9331 20.7535 19.2652 20.7454 21.7858 20.7445L24.622 20.7434L24.7706 20.8437Z" fill="#C0C0C0"/>
</svg>
