<svg width="32" height="32" viewBox="0 0 32 32" fill="none" xmlns="http://www.w3.org/2000/svg">
<path fill-rule="evenodd" clip-rule="evenodd" d="M15.2056 3.04243C12.2836 3.38339 9.8237 5.4535 9.01624 8.25106C8.7523 9.16544 8.73834 9.33727 8.70647 12.0523L8.67664 14.5916L8.33602 14.7194C8.14867 14.7897 7.88907 14.8864 7.75915 14.9342C7.46018 15.0444 7.20243 15.2703 7.08861 15.5218C7.00477 15.7072 7 15.9852 7 20.701C7 25.4313 7.00453 25.6942 7.08934 25.8816C7.19094 26.1063 7.41439 26.313 7.67283 26.4215C8.06532 26.5864 9.42381 27.0361 10.0154 27.1971C13.9509 28.2676 18.0491 28.2676 21.9846 27.1971C22.5762 27.0361 23.9347 26.5864 24.3272 26.4215C24.5856 26.313 24.8091 26.1063 24.9107 25.8816C24.9955 25.6942 25 25.4313 25 20.701C25 15.9852 24.9952 15.7072 24.9114 15.5218C24.7976 15.2703 24.5398 15.0444 24.2409 14.9342C24.1109 14.8864 23.8513 14.7897 23.664 14.7194L23.3234 14.5916L23.2935 12.0523C23.2617 9.33727 23.2477 9.16544 22.9838 8.25106C22.332 5.99291 20.5158 4.10773 18.2757 3.36429C17.321 3.04746 16.184 2.92826 15.2056 3.04243ZM16.5417 5.55434C17.5365 5.63167 18.5742 6.13083 19.3501 6.90524C20.0264 7.58028 20.4822 8.42596 20.6765 9.36648C20.7567 9.75454 20.7675 10.0457 20.7681 11.8459C20.7686 13.4455 20.7556 13.8856 20.7079 13.8855C20.6744 13.8855 20.4171 13.8421 20.1361 13.7892C19.2467 13.6217 18.1698 13.4975 17.0881 13.4377C15.4709 13.3483 13.4483 13.4838 11.864 13.7877C11.583 13.8415 11.3257 13.8856 11.2922 13.8856C11.2444 13.8856 11.2314 13.4472 11.2319 11.8459C11.2325 10.0457 11.2433 9.75454 11.3235 9.36648C11.4514 8.74733 11.6725 8.20694 12.0059 7.6989C12.821 6.45665 14.1024 5.67349 15.54 5.53895C15.7796 5.51652 16.0195 5.50431 16.073 5.51178C16.1265 5.51931 16.3374 5.53846 16.5417 5.55434ZM16.3462 16.866C17.1893 17.024 17.8187 17.6823 17.9526 18.5462C18.048 19.1612 17.815 19.7907 17.3261 20.2394C17.1812 20.3724 17.0425 20.4811 17.0179 20.4811C16.9916 20.4811 16.9728 21.2083 16.9721 22.2521C16.9712 23.8694 16.9633 24.0401 16.8812 24.2185C16.6631 24.6929 16.1063 24.9079 15.622 24.7048C15.3815 24.6039 15.2275 24.4551 15.1188 24.2185C15.0368 24.0403 15.0288 23.8704 15.0278 22.2888L15.0267 20.5544L14.7203 20.2793C14.027 19.6568 13.8395 18.7942 14.2174 17.9655C14.5096 17.3248 15.2275 16.853 15.9569 16.8223C16.0268 16.8193 16.202 16.839 16.3462 16.866Z" fill="#C0C0C0"/>
</svg>
