<svg width="15" height="8" viewBox="0 0 15 8" fill="none" xmlns="http://www.w3.org/2000/svg">
<path fill-rule="evenodd" clip-rule="evenodd" d="M14.1982 7.97706C14.5018 7.91015 14.7772 7.69487 14.9149 7.41679C14.9842 7.27693 14.9963 7.21699 14.9957 7.01883C14.9944 6.57995 15.2761 6.87636 11.496 3.33596C9.2161 1.20072 8.09197 0.166409 8.00094 0.120245C7.78839 0.0124663 7.53737 -0.0254085 7.31655 0.0169949C7.21566 0.0363715 7.07274 0.0828366 6.99897 0.120245C6.90794 0.166408 5.7838 1.20072 3.50396 3.33596C-0.276471 6.87666 0.00530361 6.58014 0.00445256 7.01883C0.00407105 7.21751 0.0163964 7.2775 0.0875884 7.42321C0.333914 7.92733 0.990371 8.14058 1.52816 7.89119C1.6046 7.85575 2.6665 6.88297 4.57275 5.10211L7.49995 2.36743L10.4272 5.10211C12.3409 6.88994 13.395 7.85554 13.4718 7.89099C13.6951 7.99419 13.9718 8.02696 14.1982 7.97706Z" fill="#C0C0C0"/>
</svg>
